<?xml version="1.0" encoding="utf-8"?>
<!-- Generator: Adobe Illustrator 16.0.0, SVG Export Plug-In . SVG Version: 6.00 Build 0)  -->
<!DOCTYPE svg PUBLIC "-//W3C//DTD SVG 1.1//EN" "http://www.w3.org/Graphics/SVG/1.1/DTD/svg11.dtd">
<svg version="1.1" xmlns="http://www.w3.org/2000/svg" xmlns:xlink="http://www.w3.org/1999/xlink" x="0px" y="0px" width="41px"
	 height="41px" viewBox="0 0 41 41" enable-background="new 0 0 41 41" xml:space="preserve">
<g id="Layer_2" display="none">
	
		<rect x="-2140.208" y="-1299.208" display="inline" fill="#58595B" stroke="#231F20" stroke-miterlimit="10" width="5040" height="3156"/>
</g>
<g id="Layer_3" display="none">
	<rect x="-2109.921" y="-1266.075" display="inline" width="5170.966" height="3239.352"/>
</g>
<g id="Layer_1">
	
		<rect x="6.004" y="6.003" transform="matrix(0.7071 0.7071 -0.7071 0.7071 20.5002 -8.4917)" fill="#FFFFFF" width="28.992" height="28.991"/>
	<path fill="#080808" d="M18.909,19.506c0,0,2.271-0.169,2.271-2.832c0-2.665-1.858-3.964-4.212-3.964H9.224v14.887h7.745
		c0,0,4.727,0.146,4.727-4.396C21.696,23.2,21.903,19.506,18.909,19.506L18.909,19.506z M16.41,15.355h0.559
		c0,0,1.054,0,1.054,1.549c0,1.55-0.619,1.773-1.322,1.773h-4.063v-3.322H16.41L16.41,15.355z M16.749,24.949h-4.112v-3.978h4.332
		c0,0,1.57-0.021,1.57,2.046C18.539,24.758,17.366,24.936,16.749,24.949L16.749,24.949z M28,16.498
		c-5.722,0-5.718,5.717-5.718,5.717s-0.393,5.69,5.718,5.69c0,0,5.096,0.291,5.096-3.957h-2.619c0,0,0.088,1.601-2.387,1.601
		c0,0-2.619,0.175-2.619-2.591h7.711C33.182,22.958,34.025,16.498,28,16.498L28,16.498z M25.441,20.972c0,0,0.32-2.294,2.619-2.294
		s2.27,2.294,2.27,2.294H25.441z M30.941,15.421h-6.141v-1.834h6.141V15.421L30.941,15.421z"/>
</g>
</svg>
