<?xml version="1.0" encoding="utf-8"?>
<!-- Generator: Adobe Illustrator 13.0.0, SVG Export Plug-In . SVG Version: 6.00 Build 14948)  -->
<!DOCTYPE svg PUBLIC "-//W3C//DTD SVG 1.1//EN" "http://www.w3.org/Graphics/SVG/1.1/DTD/svg11.dtd">
<svg version="1.1" id="Behance" xmlns="http://www.w3.org/2000/svg" xmlns:xlink="http://www.w3.org/1999/xlink" x="0px" y="0px"
	 width="24px" height="15px" viewBox="0 0 24 15" enable-background="new 0 0 24 15" xml:space="preserve">
<g id="behance">
	<g>
		<path d="M9.687,6.796c0,0,2.271-0.169,2.271-2.832C11.958,1.299,10.1,0,7.746,0H0v14.887h7.746
			c0,0,4.727,0.146,4.727-4.396C12.473,10.49,12.68,6.796,9.687,6.796L9.687,6.796z M7.187,2.646h0.559c0,0,1.054,0,1.054,1.549
			c0,1.55-0.62,1.773-1.323,1.773H3.414V2.646H7.187L7.187,2.646z M7.526,12.238H3.414V8.262h4.332c0,0,1.571-0.021,1.571,2.045
			C9.316,12.047,8.143,12.225,7.526,12.238L7.526,12.238z M18.777,3.589c-5.723,0-5.719,5.716-5.719,5.716s-0.393,5.691,5.719,5.691
			c0,0,5.097,0.291,5.097-3.957h-2.619c0,0,0.088,1.6-2.388,1.6c0,0-2.619,0.176-2.619-2.59h7.712
			C23.96,10.049,24.804,3.589,18.777,3.589L18.777,3.589z M16.219,8.062c0,0,0.32-2.294,2.619-2.294c2.3,0,2.271,2.294,2.271,2.294
			H16.219z M21.72,2.512h-6.142V0.678h6.142V2.512L21.72,2.512z"/>
	</g>
</g>
</svg>
