<?xml version="1.0" encoding="utf-8"?>
<!-- Generator: Adobe Illustrator 16.0.0, SVG Export Plug-In . SVG Version: 6.00 Build 0)  -->
<!DOCTYPE svg PUBLIC "-//W3C//DTD SVG 1.1//EN" "http://www.w3.org/Graphics/SVG/1.1/DTD/svg11.dtd">
<svg version="1.1" xmlns="http://www.w3.org/2000/svg" xmlns:xlink="http://www.w3.org/1999/xlink" x="0px" y="0px" width="41px"
	 height="41px" viewBox="0 0 41 41" enable-background="new 0 0 41 41" xml:space="preserve">
<g id="Layer_2" display="none">
	
		<rect x="-2240.708" y="-1303.875" display="inline" fill="#58595B" stroke="#231F20" stroke-miterlimit="10" width="5040" height="3156"/>
</g>
<g id="Layer_3" display="none">
	<rect x="-2210.421" y="-1270.742" display="inline" width="5170.966" height="3239.352"/>
</g>
<g id="Layer_1">
	
		<rect x="6.003" y="6.004" transform="matrix(0.7071 0.7071 -0.7071 0.7071 20.5014 -8.4915)" fill="#227AEF" width="28.993" height="28.991"/>
	<path fill="#FFFFFF" d="M18.909,19.506c0,0,2.271-0.168,2.271-2.832c0-2.665-1.858-3.964-4.212-3.964H9.224v14.886h7.745
		c0,0,4.728,0.146,4.728-4.396C21.696,23.2,21.902,19.506,18.909,19.506L18.909,19.506z M16.41,15.355h0.559
		c0,0,1.054,0,1.054,1.549c0,1.55-0.62,1.773-1.323,1.773h-4.062v-3.322H16.41L16.41,15.355z M16.748,24.949h-4.111v-3.978h4.332
		c0,0,1.57-0.02,1.57,2.046C18.539,24.758,17.366,24.936,16.748,24.949L16.748,24.949z M28.001,16.498
		c-5.723,0-5.719,5.717-5.719,5.717s-0.393,5.69,5.719,5.69c0,0,5.096,0.291,5.096-3.957h-2.619c0,0,0.087,1.601-2.388,1.601
		c0,0-2.619,0.175-2.619-2.591h7.712C33.183,22.958,34.025,16.498,28.001,16.498L28.001,16.498z M25.441,20.971
		c0,0,0.321-2.293,2.62-2.293s2.27,2.293,2.27,2.293H25.441z M30.942,15.421h-6.142v-1.834h6.142V15.421L30.942,15.421z"/>
</g>
</svg>
