<?xml version="1.0" encoding="utf-8"?>
<!-- Generator: Adobe Illustrator 16.0.0, SVG Export Plug-In . SVG Version: 6.00 Build 0)  -->
<!DOCTYPE svg PUBLIC "-//W3C//DTD SVG 1.1//EN" "http://www.w3.org/Graphics/SVG/1.1/DTD/svg11.dtd">
<svg version="1.1" xmlns="http://www.w3.org/2000/svg" xmlns:xlink="http://www.w3.org/1999/xlink" x="0px" y="0px" width="41px"
	 height="41px" viewBox="0 0 41 41" enable-background="new 0 0 41 41" xml:space="preserve">
<g id="Layer_2" display="none">
	
		<rect x="-2241.375" y="-1194.542" display="inline" fill="#58595B" stroke="#231F20" stroke-miterlimit="10" width="5040" height="3156"/>
</g>
<g id="Layer_3" display="none">
	<rect x="-2211.088" y="-1161.408" display="inline" width="5170.966" height="3239.352"/>
</g>
<g id="Layer_1">
	<linearGradient id="SVGID_1_" gradientUnits="userSpaceOnUse" x1="20.5" y1="41.8335" x2="20.5" y2="-0.5929">
		<stop  offset="0.09" style="stop-color:#FA8F21"/>
		<stop  offset="0.6128" style="stop-color:#D82D7E"/>
		<stop  offset="0.9959" style="stop-color:#86449A"/>
	</linearGradient>
	<polygon fill="url(#SVGID_1_)" points="20.5,41 0,20.498 20.5,-0.002 41,20.498 	"/>
	<path fill="#FFFFFF" d="M29.438,20.458c0-1.146-0.222-2.239-0.608-3.25h8.881l-3-3h-7.767c-1.665-1.766-4.019-2.875-6.631-2.875
		s-4.966,1.109-6.631,2.875H6.29l-3,3h8.506c-0.387,1.011-0.608,2.104-0.608,3.25c0,5.032,4.093,9.125,9.125,9.125
		C25.344,29.583,29.438,25.49,29.438,20.458z M20.312,26.583c-3.378,0-6.125-2.748-6.125-6.125s2.747-6.125,6.125-6.125
		c3.377,0,6.125,2.748,6.125,6.125S23.689,26.583,20.312,26.583z"/>
</g>
</svg>
