<?xml version="1.0" encoding="utf-8"?>
<!-- Generator: Adobe Illustrator 16.0.0, SVG Export Plug-In . SVG Version: 6.00 Build 0)  -->
<!DOCTYPE svg PUBLIC "-//W3C//DTD SVG 1.1//EN" "http://www.w3.org/Graphics/SVG/1.1/DTD/svg11.dtd">
<svg version="1.1" xmlns="http://www.w3.org/2000/svg" xmlns:xlink="http://www.w3.org/1999/xlink" x="0px" y="0px" width="41px"
	 height="41px" viewBox="0 0 41 41" enable-background="new 0 0 41 41" xml:space="preserve">
<g id="Layer_2" display="none">
	
		<rect x="-2139.375" y="-1141.875" display="inline" fill="#58595B" stroke="#231F20" stroke-miterlimit="10" width="5040" height="3156"/>
</g>
<g id="Layer_3" display="none">
	<rect x="-2109.088" y="-1108.742" display="inline" width="5170.966" height="3239.352"/>
</g>
<g id="Layer_1">
	
		<rect x="6.003" y="6.004" transform="matrix(0.7071 0.7071 -0.7071 0.7071 20.5011 -8.4907)" fill="#080808" width="28.993" height="28.991"/>
	<g>
		
			<rect x="9.126" y="9.125" transform="matrix(0.7071 0.7071 -0.7071 0.7071 12.9577 -5.3672)" fill="#FFFFFF" width="7.663" height="7.667"/>
		
			<rect x="24.209" y="9.126" transform="matrix(-0.7071 0.7071 -0.7071 -0.7071 57.0299 2.2929)" fill="#FFFFFF" width="7.663" height="7.666"/>
		
			<rect x="24.208" y="24.208" transform="matrix(-0.7071 -0.7071 0.7071 -0.7071 28.0377 67.6956)" fill="#FFFFFF" width="7.662" height="7.667"/>
		
			<rect x="31.751" y="16.669" transform="matrix(-0.707 0.7072 -0.7072 -0.707 75.2369 9.8314)" fill="#FFFFFF" width="7.663" height="7.663"/>
		
			<rect x="16.665" y="16.667" transform="matrix(-0.7071 -0.7071 0.7071 -0.7071 20.4988 49.4903)" fill="#FFFFFF" width="7.667" height="7.667"/>
		
			<rect x="9.127" y="24.207" transform="matrix(0.707 -0.7072 0.7072 0.707 -16.0335 17.3783)" fill="#FFFFFF" width="7.661" height="7.667"/>
		
			<rect x="16.668" y="1.586" transform="matrix(0.7072 0.707 -0.707 0.7072 9.8329 -12.9078)" fill="#FFFFFF" width="7.663" height="7.662"/>
		
			<rect x="16.668" y="31.75" transform="matrix(0.707 0.7072 -0.7072 0.707 31.1674 -4.0721)" fill="#FFFFFF" width="7.661" height="7.662"/>
		
			<rect x="1.586" y="16.668" transform="matrix(0.707 -0.7072 0.7072 0.707 -12.9098 9.8359)" fill="#FFFFFF" width="7.661" height="7.662"/>
	</g>
</g>
</svg>
