<?xml version="1.0" encoding="utf-8"?>
<!-- Generator: Adobe Illustrator 16.0.0, SVG Export Plug-In . SVG Version: 6.00 Build 0)  -->
<!DOCTYPE svg PUBLIC "-//W3C//DTD SVG 1.1//EN" "http://www.w3.org/Graphics/SVG/1.1/DTD/svg11.dtd">
<svg version="1.1" id="Layer_3" xmlns="http://www.w3.org/2000/svg" xmlns:xlink="http://www.w3.org/1999/xlink" x="0px" y="0px"
	 width="434.59px" height="205.094px" viewBox="0 0 434.59 205.094" enable-background="new 0 0 434.59 205.094"
	 xml:space="preserve">
<polygon fill="none" stroke="#F05A2A" stroke-width="2" stroke-linecap="round" stroke-linejoin="round" points="80.059,63.481 
	80.059,76.351 41.586,76.351 41.586,92.728 80.059,92.728 80.059,105.597 41.586,105.597 41.586,125.351 80.059,125.351 
	80.059,138.217 26.041,138.217 26.041,63.481 "/>
<g>
	
		<rect x="349.797" y="64.251" fill="none" stroke="#F05A2A" stroke-width="2" stroke-linecap="round" stroke-linejoin="round" width="64.984" height="11.141"/>
	
		<rect x="349.795" y="85.605" fill="none" stroke="#F05A2A" stroke-width="2" stroke-linecap="round" stroke-linejoin="round" width="52.803" height="11.141"/>
	
		<rect x="349.795" y="106.954" fill="none" stroke="#F05A2A" stroke-width="2" stroke-linecap="round" stroke-linejoin="round" width="52.803" height="11.145"/>
	
		<rect x="349.795" y="128.308" fill="none" stroke="#F05A2A" stroke-width="2" stroke-linecap="round" stroke-linejoin="round" width="52.803" height="11.142"/>
</g>
<g>
	<path fill="none" stroke="#F05A2A" stroke-width="2" stroke-linecap="round" stroke-linejoin="round" d="M243.43,124.174h-57.146
		c-1.351,1.812-2.209,4.451-2.209,7.4c0,2.953,0.858,5.596,2.209,7.402h57.146c-1.354-1.807-2.209-4.449-2.209-7.402
		C241.221,128.625,242.076,125.985,243.43,124.174z"/>
	<path fill="none" stroke="#F05A2A" stroke-width="2" stroke-linecap="round" stroke-linejoin="round" d="M237.816,109.37h-57.146
		c-1.35,1.81-2.207,4.451-2.207,7.402s0.857,5.594,2.207,7.402h57.146c-1.351-1.809-2.205-4.451-2.205-7.402
		S236.467,111.179,237.816,109.37z"/>
	<path fill="none" stroke="#F05A2A" stroke-width="2" stroke-linecap="round" stroke-linejoin="round" d="M241.559,94.565h-57.146
		c-1.35,1.812-2.207,4.451-2.207,7.402c0,2.952,0.857,5.592,2.207,7.401h57.146c-1.352-1.81-2.207-4.449-2.207-7.401
		C239.352,99.017,240.207,96.377,241.559,94.565z"/>
	<path fill="none" stroke="#F05A2A" stroke-width="2" stroke-linecap="round" stroke-linejoin="round" d="M188.283,79.604h57.146
		c1.35,1.812,2.206,4.451,2.206,7.402c0,2.952-0.856,5.594-2.206,7.4h-57.146c1.352-1.807,2.207-4.448,2.207-7.4
		C190.49,84.056,189.635,81.416,188.283,79.604z"/>
	<path fill="none" stroke="#F05A2A" stroke-width="2" stroke-linecap="round" stroke-linejoin="round" d="M183.607,64.722h57.146
		c1.351,1.81,2.207,4.451,2.207,7.402c0,2.952-0.856,5.592-2.207,7.403h-57.146c1.352-1.812,2.208-4.451,2.208-7.403
		C185.815,69.173,184.959,66.531,183.607,64.722z"/>
</g>
<g>
	<rect x="115.253" y="98.131" fill="#F05A2A" width="29.167" height="2.167"/>
	<rect x="128.753" y="84.631" fill="#F05A2A" width="2.167" height="29.167"/>
</g>
<g>
	<rect x="280.211" y="98.131" fill="#F05A2A" width="29.167" height="2.167"/>
	<rect x="293.711" y="84.631" fill="#F05A2A" width="2.167" height="29.167"/>
</g>
</svg>
