<?xml version="1.0" encoding="utf-8"?>
<!-- Generator: Adobe Illustrator 16.0.0, SVG Export Plug-In . SVG Version: 6.00 Build 0)  -->
<!DOCTYPE svg PUBLIC "-//W3C//DTD SVG 1.1//EN" "http://www.w3.org/Graphics/SVG/1.1/DTD/svg11.dtd">
<svg version="1.1" id="Layer_1" xmlns="http://www.w3.org/2000/svg" xmlns:xlink="http://www.w3.org/1999/xlink" x="0px" y="0px"
	 width="199px" height="145.5px" viewBox="0 0 199 145.5" enable-background="new 0 0 199 145.5" xml:space="preserve">
<path fill="#07377A" stroke="#FFFFFF" stroke-width="1.5" d="M189.516,52.324l-66.188-15.098l-14.104-0.995c0,0,0-12.632,0-18.256
	c0-5.623-1.644-6.315-1.644-6.315h-3.894l0.043-0.519c14.189,0.173,15.229-1.082,15.229-1.082
	c-3.288-1.125-15.617-1.082-15.617-1.082c-0.779-3.59-2.812-4.225-2.812-4.225l-0.346-0.015h-0.043l-0.346,0.015
	c0,0-2.033,0.635-2.812,4.225c0,0-12.329-0.043-15.617,1.082c0,0,1.039,1.255,15.229,1.082l0.043,0.519h-3.894
	c0,0-1.644,0.692-1.644,6.315c0,5.624,0,18.256,0,18.256l-14.104,0.995L10.809,52.324c0,0-5.451,1.083-5.451,6.749
	c0,5.667,7.052,7.354,7.052,7.354l65.366,8.739l7.787,1.038c0,0,4.412,1.471,5.58,4.412c0,0,1.168,20.809,3.979,29.287l-0.216,0.649
	L74.4,120.719c0,0-5.883,2.25-5.883,7.57s4.239,5.494,4.239,5.494s24.183,2.292,24.14,2.163c-0.045-0.13,1.297-0.52,2.336,4.022
	l0.172,0.65h1.514l0.174-0.65c1.039-4.542,2.379-4.152,2.336-4.022c-0.043,0.129,24.139-2.163,24.139-2.163s4.24-0.174,4.24-5.494
	s-5.883-7.57-5.883-7.57l-20.506-10.166l-0.217-0.649c2.812-8.479,3.98-29.287,3.98-29.287c1.168-2.941,5.58-4.412,5.58-4.412
	l7.787-1.038l65.365-8.739c0,0,7.053-1.687,7.053-7.354C194.967,53.407,189.516,52.324,189.516,52.324z"/>
</svg>
