<?xml version="1.0" encoding="utf-8"?>
<!-- Generator: Adobe Illustrator 16.0.0, SVG Export Plug-In . SVG Version: 6.00 Build 0)  -->
<!DOCTYPE svg PUBLIC "-//W3C//DTD SVG 1.1//EN" "http://www.w3.org/Graphics/SVG/1.1/DTD/svg11.dtd">
<svg version="1.1" id="Layer_1" xmlns="http://www.w3.org/2000/svg" xmlns:xlink="http://www.w3.org/1999/xlink" x="0px" y="0px"
	 width="152px" height="119.5px" viewBox="0 0 152 119.5" enable-background="new 0 0 152 119.5" xml:space="preserve">
<path fill="#118CCC" stroke="#118CCC" stroke-width="1.5" d="M5.912,40.73c1.385-3.69,4.615-3.922,4.615-3.922l58.949-4.326
	c0.23-12.978,1.787-15.573,1.787-15.573c0-2.48,0.924-5.941,0.924-5.941c-11.651,0-14.824-0.663-14.824-0.663
	c5.307-0.923,15.4-0.721,15.4-0.721c1.615-3.865,3.691-5.537,3.691-5.537l0.207,0.022l0.207-0.022c0,0,2.076,1.672,3.691,5.537
	c0,0,10.094-0.202,15.4,0.721c0,0-3.172,0.663-14.824,0.663c0,0,0.924,3.461,0.924,5.941c0,0,1.557,2.596,1.788,15.573l49.2,3.403
	v-7.672h0.576v7.614l9.172,0.98c0,0,3.23,0.231,4.615,3.922c1.383,3.691-1.789,9.633-11.998,12.229s-49.547,9.286-49.547,9.286
	l-2.653,1.788c0,0-1.442,23.592-3.058,31.032l19.15,8.997c0,0,3.749,1.443,3.749,5.134c0,3.691-3.807,4.614-3.807,4.614
	l-20.419,0.635c0,0-0.692,0.75-1.153,0.865h-0.692H76.34h-0.691c-0.462-0.115-1.154-0.865-1.154-0.865l-20.418-0.635
	c0,0-3.808-0.923-3.808-4.614c0-3.69,3.749-5.134,3.749-5.134l19.15-8.997c-1.615-7.44-3.057-31.032-3.057-31.032l-2.654-1.788
	c0,0-39.338-6.69-49.547-9.286S4.529,44.422,5.912,40.73z"/>
</svg>
