<?xml version="1.0" encoding="utf-8"?>
<!-- Generator: Adobe Illustrator 16.0.0, SVG Export Plug-In . SVG Version: 6.00 Build 0)  -->
<!DOCTYPE svg PUBLIC "-//W3C//DTD SVG 1.1//EN" "http://www.w3.org/Graphics/SVG/1.1/DTD/svg11.dtd">
<svg version="1.1" id="Layer_1" xmlns="http://www.w3.org/2000/svg" xmlns:xlink="http://www.w3.org/1999/xlink" x="0px" y="0px"
	 width="152px" height="119.5px" viewBox="0 0 152 119.5" enable-background="new 0 0 152 119.5" xml:space="preserve">
<path fill="#118CCC" stroke="#118CCC" stroke-width="1.5" d="M146.885,46.83c-1.557-3.201-5.666-3.375-5.666-3.375
	s-4.51-0.354-10.521-0.831v-9.133h-0.924v9.061c-9.488-0.755-22.188-1.773-27.1-2.211c-8.263-0.735-19.035-5.407-19.035-5.407
	c0.174-15.877-0.129-15.963-0.562-18.298c-0.396-2.135-1.082-4.327-1.255-5.062s-0.648-2.726-0.648-2.726
	c8.393,0.606,14.189-0.778,14.189-0.778c-4.066-0.995-14.839-0.477-14.839-0.477c-1.169-2.769-3.417-4.455-3.417-4.455h-0.889
	c0,0-2.25,1.687-3.418,4.455c0,0-10.771-0.519-14.838,0.477c0,0,5.797,1.385,14.189,0.778c0,0-0.477,1.99-0.65,2.726
	c-0.172,0.735-0.859,2.928-1.254,5.062c-0.432,2.335-0.734,2.421-0.562,18.298c0,0-10.771,4.672-19.033,5.407
	c-8.264,0.735-38.545,3.114-38.545,3.114s-4.109,0.174-5.668,3.375c-1.557,3.201,1.125,8.393,4.76,9.646
	c3.633,1.255,53.598,9.777,53.598,9.777s4.975,0.778,4.975,6.532c0,5.753,0.174,22.538,0.174,22.668s-16.914,6.792-16.914,6.792
	s-2.941,1.038-2.941,5.58s5.494,4.542,5.494,4.542s16.006,0.953,15.918,0.909c-0.086-0.044,0.822,1.859,2.033,2.942h6.254
	c1.211-1.083,2.119-2.986,2.033-2.942s15.92-0.909,15.92-0.909s5.494,0,5.494-4.542s-2.941-5.58-2.941-5.58
	S83.38,95.584,83.38,95.454s0.173-16.915,0.173-22.668c0-5.754,4.975-6.532,4.975-6.532s49.965-8.522,53.6-9.777
	C145.761,55.223,148.442,50.031,146.885,46.83z"/>
</svg>
