<?xml version="1.0" encoding="utf-8"?>
<!-- Generator: Adobe Illustrator 16.0.0, SVG Export Plug-In . SVG Version: 6.00 Build 0)  -->
<!DOCTYPE svg PUBLIC "-//W3C//DTD SVG 1.1//EN" "http://www.w3.org/Graphics/SVG/1.1/DTD/svg11.dtd">
<svg version="1.1" id="Layer_1" xmlns="http://www.w3.org/2000/svg" xmlns:xlink="http://www.w3.org/1999/xlink" x="0px" y="0px"
	 width="184.5px" height="127.5px" viewBox="0 0 184.5 127.5" enable-background="new 0 0 184.5 127.5" xml:space="preserve">
<path fill="#118CCC" stroke="#118CCC" stroke-width="1.5" d="M173.552,44.319c0.11,0-43.89-9.746-56.629-12.567v-8.154h-0.647V9.581
	h-0.649v14.017h-0.648v7.724c-0.948-0.21-1.471-0.326-1.471-0.326h-12.113c-0.389-8.782-0.865-10.858-1.514-14.405
	c-0.648-3.548-2.076-6.359-2.076-6.359l-0.52-1.125c14.103,0.39,16.741-0.995,16.741-0.995c-5.927-1.08-17.261-0.346-17.261-0.346
	c-1.601-2.769-3.547-4.238-3.547-4.238h-1.111c0,0-1.946,1.47-3.547,4.238c0,0-11.334-0.734-17.261,0.346
	c0,0,2.639,1.385,16.741,0.995l-0.519,1.125c0,0-1.428,2.812-2.076,6.359c-0.649,3.547-1.125,5.623-1.515,14.405H71.818
	c0,0-0.523,0.116-1.471,0.326v-7.724h-0.649V9.581H69.05v14.017H68.4v8.154c-12.737,2.821-56.737,12.567-56.626,12.567
	c0.129,0-5.885,1.773-5.885,9.128c0,7.354,5.408,8.436,5.408,8.436s0.994,0.303,1.816,0.433c0.822,0.131,58.357,0.778,58.357,0.778
	s6.922,0.735,8.825,1.125c0,0,2.769,1.816,3.894,5.537c1.113,3.687,0.529,20.195,2.328,26.811c0.017,0.062,0.034,0.124,0.051,0.184
	c0,0-0.476,1.126-1.73,2.163c-1.254,1.038-16.957,7.268-16.957,7.268s-6.316,2.206-6.316,5.97s6.014,5.062,6.014,5.062
	s20.592,2.12,20.678,1.99c0.087-0.13,2.379,0.303,2.379,4.629h0.736h2.581h0.735c0-4.326,2.293-4.759,2.379-4.629
	s20.679-1.99,20.679-1.99s6.013-1.298,6.013-5.062s-6.315-5.97-6.315-5.97s-15.703-6.229-16.958-7.268
	c-1.254-1.037-1.73-2.163-1.73-2.163c0.018-0.06,0.034-0.121,0.051-0.184c1.798-6.615,1.214-23.124,2.328-26.811
	c1.125-3.721,3.894-5.537,3.894-5.537c1.903-0.39,8.825-1.125,8.825-1.125s57.535-0.647,58.357-0.778
	c0.822-0.13,1.817-0.433,1.817-0.433s5.407-1.082,5.407-8.436C179.435,46.093,173.422,44.319,173.552,44.319z"/>
</svg>
