<?xml version="1.0" encoding="utf-8"?>
<!-- Generator: Adobe Illustrator 16.0.0, SVG Export Plug-In . SVG Version: 6.00 Build 0)  -->
<!DOCTYPE svg PUBLIC "-//W3C//DTD SVG 1.1//EN" "http://www.w3.org/Graphics/SVG/1.1/DTD/svg11.dtd">
<svg version="1.1" id="Layer_1" xmlns="http://www.w3.org/2000/svg" xmlns:xlink="http://www.w3.org/1999/xlink" x="0px" y="0px"
	 width="202px" height="145.5px" viewBox="0 0 202 145.5" enable-background="new 0 0 202 145.5" xml:space="preserve">
<path fill="#07377A" stroke="#FFFFFF" stroke-width="1.5" d="M190.516,51.826l-66.188-15.098l-14.103-0.995c0,0,0-12.633,0-18.256
	c0-5.624-1.644-6.315-1.644-6.315h-3.894l0.043-0.52c14.189,0.173,15.228-1.082,15.228-1.082
	c-3.288-1.125-15.617-1.081-15.617-1.081c-0.778-3.591-2.812-4.226-2.812-4.226l-0.346-0.015h-0.044l-0.346,0.015
	c0,0-2.033,0.635-2.812,4.226c0,0-12.33-0.044-15.617,1.081c0,0,1.037,1.255,15.228,1.082l0.043,0.52h-3.894
	c0,0-1.644,0.691-1.644,6.315c0,5.623,0,18.256,0,18.256l-14.103,0.995L11.81,51.826c0,0-5.451,1.081-5.451,6.748
	c0,5.668,7.052,7.354,7.052,7.354l65.365,8.738l7.787,1.039c0,0,4.412,1.471,5.58,4.412c0,0,1.169,20.809,3.98,29.287l-0.217,0.648
	l-20.505,10.166c0,0-5.884,2.25-5.884,7.57c0,5.322,4.24,5.494,4.24,5.494s24.182,2.295,24.139,2.164
	c-0.042-0.131,1.298-0.52,2.336,4.021l0.173,0.65h1.515l0.173-0.65c1.038-4.541,2.379-4.152,2.336-4.021s24.139-2.164,24.139-2.164
	s4.24-0.172,4.24-5.494c0-5.32-5.884-7.57-5.884-7.57l-20.505-10.166l-0.217-0.648c2.812-8.479,3.98-29.287,3.98-29.287
	c1.168-2.941,5.58-4.412,5.58-4.412l7.787-1.039l65.365-8.738c0,0,7.051-1.687,7.051-7.354
	C195.966,52.907,190.516,51.826,190.516,51.826z"/>
</svg>
