<?xml version="1.0" encoding="utf-8"?>
<!-- Generator: Adobe Illustrator 16.0.0, SVG Export Plug-In . SVG Version: 6.00 Build 0)  -->
<!DOCTYPE svg PUBLIC "-//W3C//DTD SVG 1.1//EN" "http://www.w3.org/Graphics/SVG/1.1/DTD/svg11.dtd">
<svg version="1.1" id="Layer_1" xmlns="http://www.w3.org/2000/svg" xmlns:xlink="http://www.w3.org/1999/xlink" x="0px" y="0px"
	 width="290.883px" height="197.634px" viewBox="0 0 290.883 197.634" enable-background="new 0 0 290.883 197.634"
	 xml:space="preserve">
<path fill="#07377A" stroke="#FFFFFF" stroke-width="1.5" d="M284.587,58.719c-0.462-7.383-5.191-8.306-5.191-8.306l-59.438-5.079
	v-1.179h-1.096v1.086l-1.702-0.146v-1.892h-1.24v1.785l-1.038-0.088v-1.668h-1.24v1.562l-22.496-1.923c0,0-0.378,0.009-1.049,0.024
	c0.199-4.816,0.579-16.203-0.098-19.686c-0.864-4.456-3.006-5.213-3.006-5.213h-2.206v-1.319
	c19.294,0.887,21.673-0.801,21.673-0.801c-8.111-1.319-21.91-0.41-21.91-0.41c-1.32-5.407-3.354-5.754-3.354-5.754h-0.8
	c0,0-2.032,0.347-3.353,5.754c0,0-13.8-0.909-21.912,0.41c0,0,2.38,1.688,21.674,0.801v1.319h-2.207c0,0-2.141,0.757-3.006,5.213
	c-0.695,3.583-0.272,15.545-0.08,20.092c-8.398,0.175-16.35,0.322-16.531,0.262c-0.39-0.13-0.951-0.822-0.951-0.822
	c0-36.771-7.442-36.684-7.442-36.684h-1.141c0,0-7.441-0.087-7.441,36.684c0,0-0.562,0.692-0.951,0.822
	c-0.184,0.061-8.133-0.087-16.531-0.262c0.191-4.547,0.615-16.509-0.08-20.092c-0.865-4.456-3.008-5.213-3.008-5.213h-2.207v-1.319
	c19.295,0.887,21.674-0.801,21.674-0.801c-8.111-1.319-21.91-0.41-21.91-0.41c-1.32-5.407-3.354-5.754-3.354-5.754h-0.799
	c0,0-2.033,0.347-3.354,5.754c0,0-13.801-0.909-21.91,0.41c0,0,2.379,1.688,21.672,0.801v1.319h-2.205c0,0-2.143,0.757-3.008,5.213
	c-0.676,3.482-0.295,14.869-0.096,19.686c-0.672-0.016-1.051-0.024-1.051-0.024l-22.496,1.923v-1.562h-1.238V44.9l-1.039,0.088
	v-1.785h-1.24v1.892l-1.701,0.146v-1.086h-1.096v1.179l-59.439,5.079c0,0-4.73,0.923-5.191,8.306s3.346,13.036,9.344,14.651
	c6,1.614,83.982,20.072,83.982,20.072h7.324c0,0,0.809-0.115,1.904,2.308c1.096,2.422,0.865,2.653,1.328,2.653
	c0.461,0,1.586-2.942,1.99-3.375c0.402-0.433,0.633-0.951,1.787-0.951c1.152,0,20.736,0,20.736,0s1.902,0.26,1.902,1.816
	c0,1.558,0.693,40.809,2.855,56.383c0,0,0.174,0.721-1.037,1.586c-1.213,0.865-32.676,11.189-32.676,11.189s-0.461-1.269-1.01-1.269
	s-0.982,1.846-1.184,11.449s1.328,14.189,1.328,14.189l0.865-11.969c0,0,1.846,4.932,2.537,4.932l0.346,0.029v1.354
	c0,0-0.086,1.27,2.393,1.76c2.48,0.49,29.678,2.076,29.678,2.076l2.307,0.375c0,0,0.549,0.035,1.148,1.149
	c0.021,1.595,0.047,2.456,0.08,2.456c0.326,0,0.535-0.356,0.641-0.596c0.105,0.239,0.312,0.596,0.641,0.596
	c0.033,0,0.059-0.861,0.078-2.456c0.602-1.114,1.15-1.149,1.15-1.149l2.308-0.375c0,0,27.195-1.586,29.676-2.076
	s2.394-1.76,2.394-1.76v-1.354l0.346-0.029c0.692,0,2.538-4.932,2.538-4.932l0.865,11.969c0,0,1.529-4.586,1.327-14.189
	s-0.635-11.449-1.183-11.449c-0.549,0-1.01,1.269-1.01,1.269s-31.464-10.324-32.676-11.189c-1.211-0.865-1.038-1.586-1.038-1.586
	c2.163-15.574,2.855-54.825,2.855-56.383c0-1.557,1.903-1.816,1.903-1.816s19.582,0,20.736,0c1.152,0,1.384,0.519,1.787,0.951
	c0.404,0.433,1.529,3.375,1.99,3.375c0.462,0,0.231-0.231,1.326-2.653c1.096-2.423,1.904-2.308,1.904-2.308h7.324
	c0,0,77.984-18.458,83.982-20.072C281.242,71.755,285.047,66.102,284.587,58.719z"/>
</svg>
