<?xml version="1.0" encoding="utf-8"?>
<!-- Generator: Adobe Illustrator 16.0.0, SVG Export Plug-In . SVG Version: 6.00 Build 0)  -->
<!DOCTYPE svg PUBLIC "-//W3C//DTD SVG 1.1//EN" "http://www.w3.org/Graphics/SVG/1.1/DTD/svg11.dtd">
<svg version="1.1" id="Layer_1" xmlns="http://www.w3.org/2000/svg" xmlns:xlink="http://www.w3.org/1999/xlink" x="0px" y="0px"
	 width="290.884px" height="216px" viewBox="0 0 290.884 216" enable-background="new 0 0 290.884 216" xml:space="preserve">
<path fill="#118CCC" stroke="#118CCC" stroke-width="1.5" d="M283.767,74.435c-0.49-5.261-6.566-5.603-6.566-5.603
	s-78.625-8.347-80.83-8.597c-0.678-0.077-1.332-0.309-1.729-0.592V45.847c-0.127-2.917-2.455-3.49-2.455-3.49h-2.494
	c-0.014-0.844-0.281-2.306-0.281-2.306c10.045,0.281,20.945-0.325,20.945-0.325c-7.094-1.211-21.391-0.76-21.391-0.76
	c-1.307-3.104-3.443-3.942-3.443-3.942l-0.832-0.31c0,0-2.057,1.021-3.088,4.228c0,0-16.898,0.05-21.178,1.297
	c0,0,11.021,0.553,20.828-0.178c0,0-0.174,1.454-0.115,2.296h-2.494c0,0-2.088,1.005-1.961,3.922l0.236,13.366
	c-0.418,0.585-0.926,0.672-0.926,0.672s-17.449,0.328-19.033,0.396c-1.586,0.07-2.186-1.116-2.186-1.116s-0.068-8.859,0.127-13.603
	c0.197-4.743,1.342-8.285,1.395-15.014s-1.242-12.59-1.242-12.59s-2.342-8.038-4.025-10.245c-1.684-2.208-5.003-2.149-5.003-2.149
	l-1.326,0.081c0,0-3.318,0.003-4.961,2.241s-3.836,10.318-3.836,10.318s-1.186,5.884-1.008,12.61s1.389,10.247,1.674,14.985
	s0.381,13.598,0.381,13.598s-0.58,1.197-2.164,1.158c-1.586-0.04-19.039-0.045-19.039-0.045s-0.51-0.076-0.939-0.653l-0.01-13.375
	c0.072-2.919-2.039-4.559-2.039-4.559h-2.496c0.043-0.843-0.15-1.573-0.15-1.573c9.819,0.549,20.834-0.545,20.834-0.545
	c-4.302-1.168-21.205-0.568-21.205-0.568c-1.09-3.186-3.165-4.169-3.165-4.169l-0.832-0.021c0,0-2.122,1.224-3.37,4.352
	c0,0-16.885-0.545-21.24,0.406c0,0,5.76,0.829,20.814,0.687c0,0-0.246,0.588-0.246,1.432h-2.496c0,0-2.171,1.539-2.244,4.458
	l-0.008,13.806c-0.392,0.291-0.906,0.531-1.582,0.621c-2.201,0.291-80.656,10.097-80.656,10.097s-6.069,0.454-6.461,5.724
	c-0.391,5.27,3.619,10.995,6.283,11.755c0,0,0.544,0.749,0.973,0.89c0.43,0.141,34.207,7.823,34.207,7.823l0.656-0.286l17.52,3.728
	l29.854,7.065l5.093,0.561l3.324,8.955c0,0,0.329,0.657,0.59,0.62c0.261-0.036,0.652-0.113,1.115-1.356
	c0.465-1.243,1.982-6.571,1.982-6.571s0.932-0.929,1.537-0.871c0.604,0.059,15.619,1.82,15.619,1.82l9.838,1.111
	c0,0,1.445,1.075,1.389,3.28c-0.055,2.206-0.812,45.114,2.333,62.387l-30.757,6.485c0,0-1.071-0.416-1.263-1.416
	s-0.187-1.173-0.534-1.139c-0.347,0.034-1.001,1.966-0.957,10.578s0.93,13.005,0.93,13.005s0.693-0.069,0.927-5.905l1.506,0.341
	c0,0,2.758,3.921,7.288,4.467c4.529,0.546,27.305,3.453,27.305,3.453s0.814,2.011,1.154,2.279s0.947,0.24,0.947,0.24l0.293-0.071
	c0,0,0.607,0.017,0.941-0.258s1.112-2.3,1.112-2.3s22.717-3.33,27.236-3.96s7.205-4.601,7.205-4.601l1.498-0.369
	c0.342,5.83,1.037,5.887,1.037,5.887s0.803-4.408,0.688-13.02c-0.117-8.612-0.807-10.531-1.154-10.559
	c-0.348-0.028-0.34,0.145-0.512,1.148c-0.174,1.003-1.236,1.439-1.236,1.439l-30.873-5.913c2.824-17.329,1.271-60.216,1.174-62.42
	c-0.096-2.204,1.328-3.305,1.328-3.305l9.816-1.295c0,0,14.98-2.04,15.584-2.109c0.602-0.07,1.551,0.841,1.551,0.841
	s1.617,5.299,2.104,6.534c0.488,1.235,0.881,1.305,1.143,1.337c0.26,0.031,0.578-0.632,0.578-0.632l3.156-9.015l5.082-0.654
	l29.719-7.619l17.445-4.053l0.662,0.274c0,0,33.629-8.309,34.055-8.457c0.428-0.148,0.957-0.908,0.957-0.908
	C280.351,85.497,284.255,79.697,283.767,74.435z"/>
</svg>
