<?xml version="1.0" encoding="utf-8"?>
<!-- Generator: Adobe Illustrator 16.0.0, SVG Export Plug-In . SVG Version: 6.00 Build 0)  -->
<!DOCTYPE svg PUBLIC "-//W3C//DTD SVG 1.1//EN" "http://www.w3.org/Graphics/SVG/1.1/DTD/svg11.dtd">
<svg version="1.1" id="Layer_1" xmlns="http://www.w3.org/2000/svg" xmlns:xlink="http://www.w3.org/1999/xlink" x="0px" y="0px"
	 width="296px" height="271.5px" viewBox="0 0 296 271.5" enable-background="new 0 0 296 271.5" xml:space="preserve">
<path fill="#118CCC" stroke="#118CCC" stroke-width="1.5" d="M148.633,4.59c0,0-1.434-0.337-3.625,3.119
	c-2.191,3.457-5.312,18.294-6.408,28.494c-1.094,10.2-0.674,43.414-0.674,57.661c0,0-0.928,1.687-3.709,3.035
	c-1.646,0.798-24.107,3.165-42.152,4.961c-0.016-16.958-1.654-41.836-2.102-44.077c-0.506-2.529-1.686-2.781-1.686-2.781h-7.506
	c0,0-1.182,0.252-1.688,2.781c-0.461,2.308-2.184,28.602-2.1,45.552c-4.691,0.45-7.678,0.729-7.678,0.729l-54.965,6.407
	c0,0-6.49,1.854-7.924,8.346s2.529,14.584,4.973,15.596c2.445,1.012,42.066,10.791,42.066,10.791l14.584,3.625l51.508,13.488
	l17.365,4.468c0,0,1.855,33.806,4.301,59.685c0,0-0.338,0.843-2.529,2.36s-35.322,9.441-35.322,9.441s-4.637,2.107-5.48,8.684
	c-0.842,6.574,6.154,12.055,7.588,12.308s39.283,4.047,39.283,4.047l1.939,4.467h1.35h1.24h1.348l1.938-4.467
	c0,0,37.852-3.794,39.284-4.047c1.434-0.253,8.431-5.733,7.587-12.308c-0.843-6.576-5.479-8.684-5.479-8.684
	s-33.13-7.924-35.321-9.441s-2.529-2.36-2.529-2.36c2.445-25.879,4.3-59.685,4.3-59.685l17.365-4.468l51.509-13.488l14.583-3.625
	c0,0,39.62-9.778,42.065-10.791c2.445-1.012,6.407-9.104,4.975-15.596c-1.434-6.491-7.924-8.346-7.924-8.346l-54.965-6.407
	c0,0-2.986-0.279-7.679-0.729c0.085-16.95-1.639-43.244-2.101-45.552c-0.506-2.529-1.686-2.781-1.686-2.781h-7.506
	c0,0-1.181,0.252-1.686,2.781c-0.448,2.241-2.087,27.119-2.103,44.077c-18.046-1.796-40.505-4.163-42.153-4.961
	c-2.781-1.349-3.708-3.035-3.708-3.035c0-14.247,0.421-47.461-0.675-57.661s-4.215-25.037-6.406-28.494
	c-2.19-3.456-3.624-3.119-3.624-3.119H148.633z"/>
</svg>
