<?xml version="1.0" encoding="utf-8"?>
<!-- Generator: Adobe Illustrator 16.0.0, SVG Export Plug-In . SVG Version: 6.00 Build 0)  -->
<!DOCTYPE svg PUBLIC "-//W3C//DTD SVG 1.1//EN" "http://www.w3.org/Graphics/SVG/1.1/DTD/svg11.dtd">
<svg version="1.1" id="Layer_1" xmlns="http://www.w3.org/2000/svg" xmlns:xlink="http://www.w3.org/1999/xlink" x="0px" y="0px"
	 width="157px" height="137.5px" viewBox="214.667 0 157 137.5" enable-background="new 214.667 0 157 137.5" xml:space="preserve">
<path fill="#118CCC" stroke="#118CCC" stroke-width="1.5" d="M367.763,61.139c-0.605-3.028-4.297-4.009-4.297-4.009
	s-31.003-3.576-32.589-3.749c-0.619-0.067-1.162-0.438-1.596-0.866c-0.658-18.088-1.624-18.629-2.087-20.303
	c-0.479-1.73-1.018-1.961-1.018-1.961h-6.554c0,0-0.538,0.23-1.018,1.961c-0.451,1.634-1.383,2.191-2.04,19.048
	c-0.555,0.434-1.406,0.448-1.406,0.448s-13.209-1.5-14.68-2.048s-1.558-1.558-1.558-1.558s-0.23-2.884-0.23-14.103
	s-2.739-21.312-2.739-21.312V8.188h-0.838v0.577c-1.152-3.49-2.508-3.605-2.508-3.605V2.306h-0.766V5.16
	c0,0-1.355,0.115-2.509,3.605V8.188h-0.837v4.499c0,0-2.74,10.094-2.74,21.312s-0.23,14.103-0.23,14.103s-0.086,1.01-1.557,1.558
	s-14.682,2.048-14.682,2.048s-0.851-0.015-1.405-0.448c-0.656-16.856-1.589-17.414-2.04-19.048c-0.479-1.73-1.017-1.961-1.017-1.961
	h-6.556c0,0-0.537,0.23-1.016,1.961c-0.463,1.674-1.43,2.215-2.088,20.303c-0.434,0.428-0.976,0.799-1.596,0.866
	c-1.586,0.173-32.588,3.749-32.588,3.749s-3.692,0.98-4.298,4.009s0.605,6.287,4.471,8.509c3.864,2.221,11.044,2.768,11.044,2.768
	l21.285,2.797c0,0,3.432,0.578,3.923,1.703c0.489,1.125,0.374,3.518,0.374,3.518s-0.259,2.711,1.471,3.26c1.73,0.547,5.25,0,5.25,0
	s1.441,0.316,1.701-3.145c0.259-3.461,1.096-3.201,1.759-3.143c0.663,0.057,15.66,2.48,15.66,2.48s2.077,0.777,2.798,2.336
	c0.721,1.557,1.326,21.975,3.172,32.877l-18.342,5.537c0,0-3.461,1.154-3.576,3.98s3.807,5.479,6.287,5.939
	c2.256,0.42,14.53,1.223,16.733,1.363l-0.048-0.854h0.432l1.037,3.361l1.254-3.361h0.434l-0.049,0.854
	c2.204-0.141,14.479-0.943,16.734-1.363c2.479-0.461,6.402-3.113,6.287-5.939s-3.576-3.98-3.576-3.98l-18.343-5.537
	c1.846-10.902,2.451-31.32,3.173-32.877c0.721-1.559,2.797-2.336,2.797-2.336s14.997-2.424,15.66-2.48
	c0.664-0.059,1.5-0.318,1.76,3.143c0.258,3.461,1.701,3.145,1.701,3.145s3.519,0.547,5.249,0c1.73-0.549,1.471-3.26,1.471-3.26
	s-0.115-2.393,0.375-3.518s3.923-1.703,3.923-1.703l21.283-2.797c0,0,7.182-0.547,11.047-2.768
	C367.157,67.426,368.368,64.167,367.763,61.139z"/>
</svg>
