<?xml version="1.0" encoding="utf-8"?>
<!-- Generator: Adobe Illustrator 16.0.0, SVG Export Plug-In . SVG Version: 6.00 Build 0)  -->
<!DOCTYPE svg PUBLIC "-//W3C//DTD SVG 1.1//EN" "http://www.w3.org/Graphics/SVG/1.1/DTD/svg11.dtd">
<svg version="1.1" id="Layer_1" xmlns="http://www.w3.org/2000/svg" xmlns:xlink="http://www.w3.org/1999/xlink" x="0px" y="0px"
	 width="296px" height="182.589px" viewBox="0 0 296 182.589" enable-background="new 0 0 296 182.589" xml:space="preserve">
<path fill="#07377A" stroke="#FFFFFF" stroke-width="1.5" d="M283.568,41.803l-6.373-0.265v-7.811h-0.636v7.784l-83.75-3.473
	l-0.834-0.834V21.774c0-5.667-2.715-6.143-2.715-6.143h-1.811v-1.709l0.065-0.173c0.441,0.346,1.347,0.476,1.347,0.476
	c12.23,0.281,18.721-0.801,18.721-0.801c-7.551-1.211-20.443-0.994-20.443-0.994c-0.705-3.288-2.824-4.023-2.824-4.023h-0.641
	c0,0-2.119,0.735-2.825,4.023c0,0-12.892-0.217-20.442,0.994c0,0,6.49,1.082,18.721,0.801c0,0,0.904-0.13,1.346-0.476l0.066,0.173
	v1.709h-1.81c0,0-2.716,0.476-2.716,6.143v15.4h-0.121l-0.994,1.449h-16.72l-1.104-1.104V15.847l-1.644-3.158L152.36,10.7
	l-2.687-0.995l0.004-0.303h-2.033l0.004,0.303l-2.685,0.995l-3.072,1.989l-1.644,3.158V37.52l-1.104,1.104h-16.72l-0.994-1.449
	h-0.121v-15.4c0-5.667-2.715-6.143-2.715-6.143h-1.811v-1.709l0.066-0.173c0.441,0.346,1.346,0.476,1.346,0.476
	c12.23,0.281,18.72-0.801,18.72-0.801c-7.55-1.211-20.44-0.994-20.44-0.994c-0.707-3.288-2.826-4.023-2.826-4.023h-0.641
	c0,0-2.119,0.735-2.825,4.023c0,0-12.892-0.217-20.442,0.994c0,0,6.49,1.082,18.722,0.801c0,0,0.904-0.13,1.346-0.476l0.064,0.173
	v1.709h-1.809c0,0-2.715,0.476-2.715,6.143v15.432l-0.835,0.834l-83.751,3.473v-7.784h-0.635v7.811l-6.373,0.265
	c0,0-5.061,0.778-5.061,5.927c0,5.147,4.844,8.954,4.844,8.954l27.902,6.359l28.249,6.662l33.787,7.657c0,0,2.769,1.255,2.769,2.726
	s4.195,73.455,4.195,73.455l1.601,19.121l1.471-9.127l4.371,8.824h0.777v1.211h60.002v-1.211h0.779l4.369-8.824l1.471,9.127
	l1.602-19.121c0,0,4.195-71.984,4.195-73.455s2.769-2.726,2.769-2.726l33.786-7.657l28.248-6.662l27.903-6.359
	c0,0,4.845-3.807,4.845-8.954C288.63,42.582,283.568,41.803,283.568,41.803z M181.432,148.309h-65.538l-0.779-0.822l5.148-68.307
	l1.211-1.73h18.558c0,0,2.163,0.173,3.159,2.336l1.125,5.277c0,0,0.605,3.029,2.854,3.029h1.232v10.036h0.52V88.092h1.232
	c2.25,0,2.854-3.029,2.854-3.029l1.126-5.277c0.995-2.163,3.157-2.336,3.157-2.336h18.56l1.211,1.73l5.147,68.307L181.432,148.309z"
	/>
</svg>
