<?xml version="1.0" encoding="utf-8"?>
<!-- Generator: Adobe Illustrator 16.0.0, SVG Export Plug-In . SVG Version: 6.00 Build 0)  -->
<!DOCTYPE svg PUBLIC "-//W3C//DTD SVG 1.1//EN" "http://www.w3.org/Graphics/SVG/1.1/DTD/svg11.dtd">
<svg version="1.1" id="Layer_1" xmlns="http://www.w3.org/2000/svg" xmlns:xlink="http://www.w3.org/1999/xlink" x="0px" y="0px"
	 width="172.205px" height="200.762px" viewBox="0 0 172.205 200.762" enable-background="new 0 0 172.205 200.762"
	 xml:space="preserve">
<path fill="#118CCC" stroke="#118CCC" stroke-width="1.5" d="M85.507,183.77v8.521c0,0,0.087,1.904,1.298,1.904
	c0.025,0,0.049-0.086,0.072-0.24c0.022,0.154,0.046,0.24,0.07,0.24c1.211,0,1.299-1.904,1.299-1.904v-8.521h1.384l0.952-2.164
	c0,0,16.654,10.211,19.337,11.768s3.634-0.822,3.634-0.822s0.735-3.893,0.26-6.488c-0.477-2.596-2.639-4.5-2.639-4.5L93.956,166.25
	c1.989-6.75,2.249-34.264,2.249-34.264v-30.064c0,0,60.262,31.449,64.371,33.439s5.883-3.33,5.883-3.33s0.087-10.945,0-15.574
	c-0.086-4.629-4.195-7.744-4.195-7.744L96.105,62.195c0,0,0.402-25.727-0.376-34.031c-0.778-8.307-1.239-10.729-1.644-11.537
	c-0.404-0.807-0.895-0.75-0.895-0.75h-1.499c-1.873-8.182-4.639-7.297-4.815-7.295c-0.178-0.002-2.943-0.887-4.816,7.295h-1.5
	c0,0-0.49-0.057-0.894,0.75c-0.403,0.809-0.865,3.23-1.644,11.537c-0.779,8.305-0.375,34.031-0.375,34.031l-66.159,46.518
	c0,0-4.109,3.115-4.196,7.744c-0.086,4.629,0,15.574,0,15.574s1.773,5.32,5.883,3.33c4.11-1.99,64.371-33.439,64.371-33.439v30.064
	c0,0,0.26,27.514,2.25,34.264l-17.218,15.312c0,0-2.163,1.904-2.639,4.5s0.26,6.488,0.26,6.488s0.952,2.379,3.634,0.822
	s19.337-11.768,19.337-11.768l0.952,2.164H85.507z"/>
</svg>
