<?xml version="1.0" encoding="utf-8"?>
<!-- Generator: Adobe Illustrator 16.0.0, SVG Export Plug-In . SVG Version: 6.00 Build 0)  -->
<!DOCTYPE svg PUBLIC "-//W3C//DTD SVG 1.1//EN" "http://www.w3.org/Graphics/SVG/1.1/DTD/svg11.dtd">
<svg version="1.1" id="Layer_1" xmlns="http://www.w3.org/2000/svg" xmlns:xlink="http://www.w3.org/1999/xlink" x="0px" y="0px"
	 width="172.205px" height="222.666px" viewBox="0 0 172.205 222.666" enable-background="new 0 0 172.205 222.666"
	 xml:space="preserve">
<path fill="#118CCC" stroke="#118CCC" stroke-width="1.5" d="M85.297,195.149c0,0,0.461-0.201,0.576-0.057
	c0.116,0.145,0.693,15.775,0.693,15.775s0.031,0.127,0.178,0.193c0.004,0.023,0.007,0.037,0.007,0.037
	c0.048,0.004,0.089,0.002,0.125-0.002c0.036,0.004,0.077,0.006,0.122,0.002c0.004,0,0.006-0.014,0.01-0.037
	c0.146-0.066,0.179-0.193,0.179-0.193s0.577-15.631,0.692-15.775s0.576,0.057,0.576,0.057s20.592,17.363,21.775,18.344
	c1.182,0.98,1.383-0.434,1.383-0.434s0.174-6.027,0.145-7.613s-1.99-4.182-1.99-4.182l-17.621-23.131
	c3.922-33.973,4.875-72.178,4.875-72.178l4.584,2.941c0,0,0.131,1.838,0.52,2.141c0.39,0.304,0.671-1.427,0.671-1.427l3.31,2.076
	l4.866,5.169c0,0-0.13,2.098,0.26,2.4s0.714-1.146,0.714-1.146l8.068,8.545c0,0,0.021,2.119,0.367,2.379s0.67-1.297,0.67-1.297
	s27.168,29.027,29.677,31.688s2.79-0.109,2.79-0.109c1.471-7.959,1.515-13.582,1.515-21.76c0-8.176-3.937-13.41-3.937-13.41
	l-1.211-1.535v-19.834h-0.693v18.955L97.223,55.796c0-32.474-4.312-46.959-4.398-47.586c-0.086-0.627-0.447-0.692-0.447-0.692
	H81.375c0,0-0.36,0.065-0.447,0.692c-0.086,0.627-4.398,15.112-4.398,47.586l-53.873,68.35c0,0-3.936,5.234-3.936,13.41
	c0,8.178,0.043,13.801,1.514,21.76c0,0,0.281,2.77,2.79,0.109s29.677-31.688,29.677-31.688s0.324,1.557,0.67,1.297
	s0.368-2.379,0.368-2.379l8.067-8.545c0,0,0.324,1.449,0.715,1.146c0.389-0.303,0.258-2.4,0.258-2.4l4.867-5.169l3.311-2.076
	c0,0,0.281,1.73,0.67,1.427c0.39-0.303,0.52-2.141,0.52-2.141l4.586-2.941c0,0,0.951,38.205,4.873,72.178l-17.621,23.131
	c0,0-1.961,2.596-1.99,4.182c-0.028,1.586,0.145,7.613,0.145,7.613s0.201,1.414,1.385,0.434
	C64.705,212.513,85.297,195.149,85.297,195.149z"/>
</svg>
