<?xml version="1.0" encoding="utf-8"?>
<!-- Generator: Adobe Illustrator 16.0.0, SVG Export Plug-In . SVG Version: 6.00 Build 0)  -->
<!DOCTYPE svg PUBLIC "-//W3C//DTD SVG 1.1//EN" "http://www.w3.org/Graphics/SVG/1.1/DTD/svg11.dtd">
<svg version="1.1" id="Layer_1" xmlns="http://www.w3.org/2000/svg" xmlns:xlink="http://www.w3.org/1999/xlink" x="0px" y="0px"
	 width="127.333px" height="240.666px" viewBox="0 0 127.333 240.666" enable-background="new 0 0 127.333 240.666"
	 xml:space="preserve">
<path fill="#118CCC" stroke="#118CCC" stroke-width="1.5" d="M63.801,6.794l0.028,2.32l0.029-2.32H63.801z M64.277,230.562
	c0.258-2.725,0.346-13.41,0.346-13.41s0.842,0.064,0.908,0c0.064-0.064,0-1.385,0-1.385h5.45v1.039c0,0,18.861,10.08,20.376,10.902
	c1.514,0.82,1.773-0.26,1.773-0.26s0-5.451,0-7.139s-0.995-2.682-0.995-2.682s-0.238-10.016-1.081-9.172
	c-0.844,0.844-0.736,5.754-0.736,5.754L74.14,186.525c0.303-11.551-0.433-31.363-0.433-31.363h6.965v1.08l17.564,17.781v-0.562
	c0,0,19.596,20.115,20.633,21.066c1.039,0.953,1.169-1.816,1.169-1.816s0.52-11.205,0.52-12.891c0-1.688-0.692-4.111-0.692-4.111
	l-0.101-0.201v-3.576h-1.153v1.277l-20.029-39.938l-0.304-3.373h-0.692v1.945l-14.881-28.292l-7.57-14.795v-4.889H73.88v2.898
	l-0.778-1.341V73.357c0-29.936-3.721-40.377-3.721-40.377h-3.418l-1.883-3.768L63.829,9.115l-0.25,20.098l-1.884,3.768h-3.418
	c0,0-3.72,10.441-3.72,40.377v12.069l-0.778,1.341v-2.898h-1.255v4.889l-7.571,14.795l-14.881,28.292v-1.945H29.38l-0.303,3.373
	l-18.933,37.752v-14.232H9.855v-4.787H9.135v4.787h-0.49v14.967H7.779v4.002c-0.095,0.342-0.678,2.508-0.678,4.061
	c0,1.686,0.518,12.891,0.518,12.891s0.131,2.77,1.17,1.816c1.037-0.951,20.635-21.066,20.635-21.066v0.562l17.562-17.781v-1.08
	h6.965c0,0-0.734,19.812-0.432,31.363l-16.18,27.686c0,0,0.108-4.91-0.735-5.754s-1.081,9.172-1.081,9.172s-0.996,0.994-0.996,2.682
	s0,7.139,0,7.139s0.26,1.08,1.773,0.26c1.516-0.822,20.377-10.902,20.377-10.902v-1.039h5.45c0,0-0.065,1.32,0,1.385
	s0.907,0,0.907,0s0.088,10.686,0.348,13.41H64.277z"/>
</svg>
