<?xml version="1.0" encoding="utf-8"?>
<!-- Generator: Adobe Illustrator 16.0.0, SVG Export Plug-In . SVG Version: 6.00 Build 0)  -->
<!DOCTYPE svg PUBLIC "-//W3C//DTD SVG 1.1//EN" "http://www.w3.org/Graphics/SVG/1.1/DTD/svg11.dtd">
<svg version="1.1" id="Layer_1" xmlns="http://www.w3.org/2000/svg" xmlns:xlink="http://www.w3.org/1999/xlink" x="0px" y="0px"
	 width="127.333px" height="240.666px" viewBox="0 0 127.333 240.666" enable-background="new 0 0 127.333 240.666"
	 xml:space="preserve">
<path fill="#118CCC" stroke="#118CCC" stroke-width="1.5" d="M64.118,230.38c0.354-0.377,0.249-1.476,0.289-1.476
	c0.043,0,0-5.277,0-5.277c0.648-0.087,0.994-1.298,0.994-1.298v-4.542c0.606-0.736,0.477-2.553,0.477-2.553h3.418l0.476-0.39
	c0.433,1.298,1.211,1.774,0.995,1.774c-0.217,0,18.256,10.728,18.256,10.728v1.86c0.389,0.649,0.778-0.086,0.778-0.086v-1.471
	c0.952,0.865,1.255-0.347,1.125-0.39c-0.13-0.044,0.086-4.499,0.042-6.835c-0.042-2.336-1.124-3.504-1.124-3.504
	s0-8.652-0.476-8.998c-0.476-0.347-0.735,0.259-0.735,0.259v6.229l-15.92-29.46c0.13-5.97,0.173-25.177,0.173-25.177l0.865-2.553
	l10.296,2.206c2.163,5.278,10.34,10.599,10.34,10.599v-4.585c0,0,23.879,20.245,24.831,21.067c0.951,0.822,2.293,0.39,3.719-3.98
	c1.429-4.369,0-6.835,0-6.835l-28.55-47.153c0,0-0.217-5.667-0.909-5.667c-0.691,0-0.735,2.207-0.735,2.207
	s-4.005-7.765-8.437-16.327v-3.529h-0.734v2.108c-2.723-5.259-5.529-10.669-7.613-14.66v-3.758h-0.735v2.352
	c-1.523-2.909-2.515-4.773-2.553-4.773c-0.173,0,0-11.204,0-11.204c0-33.83-2.683-39.973-3.114-41.789
	c-0.434-1.817-1.515-1.688-1.515-1.688h-0.087v-6.638l1.701,0.278v-0.39l-1.701-0.716v-1.142l0.837,0.229v-0.39l-1.14-0.797v-8.267
	l1.14,0.311v-0.39l-1.14-0.797V6.895h-0.403v6.25l-1.053,0.644l-0.015,0.389l1.067-0.184v8.293l-1.053,0.644l-0.015,0.39
	l0.721-0.124v1.179l-1.562,0.575l-0.023,0.389l1.586-0.164v6.639h-0.851c0,0-2.037-5.521-2.149-5.537l-0.07,0.174l-0.072-0.174
	c-0.112,0.016-2.149,5.537-2.149,5.537h-1.341c-0.009-5.157-0.134-11.709-0.288-11.709s-0.28,6.552-0.288,11.709H59.62
	c0,0-1.082-0.13-1.516,1.688c-0.432,1.816-3.113,7.959-3.113,41.789c0,0,0.173,11.204,0,11.204c-0.038,0-1.029,1.864-2.553,4.773
	v-2.352h-0.735v3.758c-2.084,3.991-4.892,9.401-7.614,14.66v-2.108h-0.736v3.529c-4.43,8.562-8.435,16.327-8.435,16.327
	s-0.043-2.207-0.735-2.207c-0.691,0-0.908,5.667-0.908,5.667L4.723,175.694c0,0-1.427,2.466,0,6.835
	c1.428,4.37,2.769,4.803,3.721,3.98s24.831-21.067,24.831-21.067v4.585c0,0,8.176-5.32,10.339-10.599l10.296-2.206l0.865,2.553
	c0,0,0.043,19.207,0.173,25.177l-15.919,29.46v-6.229c0,0-0.26-0.605-0.736-0.259c-0.476,0.346-0.476,8.998-0.476,8.998
	s-1.081,1.168-1.124,3.504c-0.044,2.336,0.172,6.791,0.043,6.835c-0.131,0.043,0.173,1.255,1.125,0.39v1.471
	c0,0,0.389,0.735,0.778,0.086v-1.86c0,0,18.472-10.728,18.256-10.728c-0.217,0,0.562-0.477,0.995-1.774l0.476,0.39h3.417
	c0,0-0.129,1.816,0.477,2.553v4.542c0,0,0.346,1.211,0.995,1.298c0,0-0.044,5.277,0,5.277c0.039,0-0.066,1.099,0.288,1.476v0.082
	h0.576V230.38z"/>
</svg>
