<?xml version="1.0" encoding="utf-8"?>
<!-- Generator: Adobe Illustrator 16.0.0, SVG Export Plug-In . SVG Version: 6.00 Build 0)  -->
<!DOCTYPE svg PUBLIC "-//W3C//DTD SVG 1.1//EN" "http://www.w3.org/Graphics/SVG/1.1/DTD/svg11.dtd">
<svg version="1.1" id="Layer_1" xmlns="http://www.w3.org/2000/svg" xmlns:xlink="http://www.w3.org/1999/xlink" x="0px" y="0px"
	 width="127.333px" height="240.666px" viewBox="0 0 127.333 240.666" enable-background="new 0 0 127.333 240.666"
	 xml:space="preserve">
<path fill="#07377A" stroke="#FFFFFF" stroke-width="1.5" d="M63.225,236.296h1.211l0.908-13.975h6.597l-0.065,1.018l22.215,12.199
	l0.821-0.736v-8.283l-0.778-1.926l-0.195-8.305l-0.217-0.26l-0.193-2.531h-0.605l-0.152,2.639l-0.237,0.109l-0.303,5.189
	l-17.65-29.502l-0.043-18.646l1.99,1.602h42.654v-3.938l-9.993-17.111v-20.74h-0.605v19.703l-4.283-7.334v-10.264h-0.578v-9.576
	h-0.432v9.576h-0.576v7.549l-8.335-14.273v-17.848h-0.577v-9.574h-0.432v9.574h-0.578v15.133L74.061,93.69
	c0,0-0.692-17.348-1.256-37.982c-0.562-20.635-3.287-28.897-3.287-28.897h-3.676l-1.492-3.203V3.06h-1.039v20.547l-1.492,3.203
	h-3.678c0,0-2.725,8.263-3.287,28.897S53.599,93.69,53.599,93.69l-18.73,32.075v-15.133H34.29v-9.574h-0.432v9.574H33.28v17.848
	l-8.334,14.273v-7.549h-0.577v-9.576h-0.432v9.576h-0.576v10.264L8.479,170.95v3.938h42.654l1.988-1.602l-0.043,18.646
	L35.43,221.435l-0.304-5.189l-0.236-0.109l-0.152-2.639h-0.605l-0.195,2.531l-0.215,0.26l-0.195,8.305l-0.779,1.926v8.283
	l0.822,0.736l22.214-12.199l-0.064-1.018h6.598L63.225,236.296z"/>
</svg>
