<?xml version="1.0" encoding="utf-8"?>
<!-- Generator: Adobe Illustrator 16.0.0, SVG Export Plug-In . SVG Version: 6.00 Build 0)  -->
<!DOCTYPE svg PUBLIC "-//W3C//DTD SVG 1.1//EN" "http://www.w3.org/Graphics/SVG/1.1/DTD/svg11.dtd">
<svg version="1.1" id="Layer_1" xmlns="http://www.w3.org/2000/svg" xmlns:xlink="http://www.w3.org/1999/xlink" x="0px" y="0px"
	 width="127.333px" height="269.989px" viewBox="0 0 127.333 269.989" enable-background="new 0 0 127.333 269.989"
	 xml:space="preserve">
<path fill="#118CCC" stroke="#118CCC" stroke-width="1.5" d="M64.925,261.626c-0.057,0,0-7.383,0-7.383
	c0.98-0.923,1.153-3.979,1.153-3.979s2.595-2.452,2.868-2.918c0.117,0.226,0.727,0.829,1.229,0.783
	c0.635-0.058,0.98-1.211,0.98-1.211l4.613-0.173l1.328,5.825l16.957,9.171c0,0,0.115,1.558,0.75,1.558s0.404-1.096,0.404-1.096
	l0.922-0.231v-8.363l-1.746-3.034c0-0.151,0.002-0.301,0.002-0.455c0-4.029-0.232-7.296-0.52-7.296c-0.254,0-0.465,2.572-0.51,5.966
	l-16.145-28.058v-16.843l35.111-0.163v1.548h0.75v-1.552l1.398-0.006v-2.826l-13.496-25.033l-23.648-42.164l0.115-25.264
	l-0.059-1.385l-1.096-1.211l-4.672-8.363h-0.865c0.404-12.113,0.75-24.86,0.75-33.108s-6.979-37.088-6.979-37.088h-0.348
	c0-0.637,0-1.28,0-1.933c0-5.373-0.041-10.236-0.107-13.753l0.959,0.299l0.346-0.605l-1.336-1.191
	c-0.062-2.61-0.143-4.173-0.229-4.173s-0.166,1.577-0.229,4.213l-1.293,1.151l0.348,0.605l0.914-0.285
	c-0.066,3.516-0.107,8.373-0.107,13.739c0,0.652,0,1.296,0.002,1.933h-0.305c0,0-6.979,28.84-6.979,37.088
	s0.346,20.995,0.748,33.108h-0.865l-4.672,8.363l-1.095,1.211l-0.059,1.385l0.115,25.264l-23.648,42.164l-5.032,9.335v-19.313H21.19
	v20.168l-8.004,14.844v2.826l1.139,0.005v1.726h0.52v-1.723l35.603,0.165v16.843l-16.856,29.295
	c-0.004-3.986-0.234-7.203-0.52-7.203s-0.518,3.267-0.518,7.296c0,0.581,0.004,1.144,0.014,1.686l-1.037,1.804v8.363l0.922,0.231
	c0,0-0.23,1.096,0.404,1.096c0.633,0,0.75-1.558,0.75-1.558l16.956-9.171l1.327-5.825l4.615,0.173c0,0,0.346,1.153,0.98,1.211
	c0.504,0.046,1.111-0.558,1.229-0.783c0.271,0.466,2.867,2.918,2.867,2.918s0.172,3.057,1.152,3.979c0,0,0.059,7.383,0,7.383
	c-0.057,0-1.557,1.846,0.75,2.48h0.691C66.482,263.472,64.983,261.626,64.925,261.626z"/>
</svg>
