<?xml version="1.0" encoding="utf-8"?>
<!-- Generator: Adobe Illustrator 16.0.0, SVG Export Plug-In . SVG Version: 6.00 Build 0)  -->
<!DOCTYPE svg PUBLIC "-//W3C//DTD SVG 1.1//EN" "http://www.w3.org/Graphics/SVG/1.1/DTD/svg11.dtd">
<svg version="1.1" id="Layer_1" xmlns="http://www.w3.org/2000/svg" xmlns:xlink="http://www.w3.org/1999/xlink" x="0px" y="0px"
	 width="132.5px" height="283.5px" viewBox="202.167 -7.505 132.5 283.5" enable-background="new 202.167 -7.505 132.5 283.5"
	 xml:space="preserve">
<path fill="#118CCC" stroke="#118CCC" stroke-width="1.5" d="M269.981,269.266v-9.906c1.473-0.65,2.336-2.596,2.336-2.596
	s1.645,0.129,1.645,0c0-0.131,1.602,0.951,1.602,0.951v2.336h0.691v-3.59h6.879l0.822-7.139l21.152,5.408l0.26,1.297h0.693v-1.125
	l2.682,0.908v0.996h0.865v-0.779l1.859,0.434l0.26-0.822l1.385-0.043l5.623-9.518l-33.223-45.943l-0.174-11.809l37.16,49.748
	c4.76-2.596,8.35-8.867,8.35-8.867l-35.068-91.77c0,0-0.23-5.624-0.779-5.624c-0.547,0-0.664,1.124-0.664,1.124l-9.199-25.465
	c0,0,0-4.297,0-7.7s-0.865-5.104-0.865-5.104h-1.73c0,0-2.725-6.764-2.826-6.864s-1.645,0-1.645,0V48.697l2.885-1.701v-6.749h-0.895
	v5.307h-2.047v-7.094c0-13.383-8.363-31.234-8.363-31.32c0-0.02-0.047-0.029-0.115-0.034V3.476h0.814
	c0.047,1.274,0.297,2.25,0.598,2.25c0.334,0,0.605-1.201,0.605-2.683s-0.271-2.682-0.605-2.682c-0.262,0-0.482,0.733-0.568,1.759
	h-1.248v-5.479h-0.605v5.479h-1.25c-0.084-1.025-0.307-1.759-0.568-1.759c-0.334,0-0.605,1.2-0.605,2.682s0.271,2.683,0.605,2.683
	c0.303,0,0.551-0.976,0.598-2.25h0.816v3.629c-0.068,0.005-0.115,0.015-0.115,0.034c0,0.086-8.363,17.938-8.363,31.32v7.094h-2.049
	v-5.307h-0.893v6.749l2.883,1.701v39.107c0,0-1.543-0.101-1.645,0c-0.1,0.101-2.826,6.864-2.826,6.864h-1.73
	c0,0-0.865,1.701-0.865,5.104s0,7.7,0,7.7l-9.199,25.465c0,0-0.115-1.124-0.664-1.124c-0.547,0-0.777,5.624-0.777,5.624
	l-35.07,91.77c0,0,3.592,6.271,8.35,8.867l37.16-49.748l-0.174,11.809l-33.223,45.943l5.623,9.518l1.385,0.043l0.26,0.822
	l1.859-0.434v0.779h0.865v-0.996l2.684-0.908v1.125h0.691l0.26-1.297l21.154-5.408l0.822,7.139h6.877v3.59h0.693v-2.336
	c0,0,1.6-1.082,1.6-0.951c0,0.129,1.645,0,1.645,0s0.865,1.945,2.336,2.596v9.906c0,0,0.043,2.119,0.779,2.119h0.75
	C269.938,271.385,269.981,269.266,269.981,269.266z"/>
</svg>
