<?xml version="1.0" encoding="utf-8"?>
<!-- Generator: Adobe Illustrator 16.0.0, SVG Export Plug-In . SVG Version: 6.00 Build 0)  -->
<!DOCTYPE svg PUBLIC "-//W3C//DTD SVG 1.1//EN" "http://www.w3.org/Graphics/SVG/1.1/DTD/svg11.dtd">
<svg version="1.1" id="Layer_1" xmlns="http://www.w3.org/2000/svg" xmlns:xlink="http://www.w3.org/1999/xlink" x="0px" y="0px"
	 width="193px" height="197.5px" viewBox="208.667 34.495 193 197.5" enable-background="new 208.667 34.495 193 197.5"
	 xml:space="preserve">
<path fill="#118CCC" stroke="#118CCC" stroke-width="1.5" d="M394.57,154.266v-5.926c0,0,0.347-0.087,0.347-0.822
	s-1.125-1.428-1.125-1.428s-0.736-4.196-2.77-4.196s-2.682,3.677-2.682,3.677l-0.173,3.201l-0.519,0.347l-18.963-7.054v-1.555
	h-0.924v1.211l-7.729-2.874c-0.108-3.947-0.505-6.874-0.979-6.874c-0.443,0-0.82,2.576-0.956,6.154l-5.923-2.203v1.254l-1.752-0.624
	c-0.062-4.468-0.486-7.927-1.002-7.927c-0.486,0-0.893,3.099-0.988,7.219l-7.938-2.826c-0.082-4.264-0.496-7.507-0.994-7.507
	c-0.473,0-0.867,2.892-0.979,6.805l-7.777-2.769c-0.084-4.229-0.496-7.439-0.992-7.439c-0.469,0-0.862,2.86-0.977,6.738l-9.045-3.22
	c0,0,0.994-13.67,0.129-14.448c-0.865-0.779-2.812-0.779-4.412-0.779s-3.851,0.648-3.851,0.648v4.456h-0.692c0,0,0-17.087,0-31.147
	c0-14.059-1.211-22.148-1.211-22.148s0.562-0.476,0.432-1.038c-0.129-0.562-0.777-0.692-0.777-0.692l-0.217-0.692
	c0,0,0.39-0.39,0.346-0.865c-0.043-0.476-0.821-0.778-0.821-0.778c-0.208-0.563-0.405-1.049-0.591-1.47v-3.822l1.312,0.446
	c0,0,0.145-0.635,0.059-0.605c-0.087,0.029-1.357-1.01-1.357-1.01l0.896,0.059l0.173-0.433l-1.082-0.914v-8.575h-0.404v8.527
	l-1.139,0.962l0.173,0.433l0.894-0.059c0,0-1.269,1.039-1.355,1.01c-0.086-0.029,0.059,0.605,0.059,0.605l1.369-0.465v2.989
	c-0.991-1.933-1.557-1.832-1.557-1.832h-2.553c0,0-0.566-0.101-1.559,1.832V41.819h-0.402v14.854
	c-0.186,0.421-0.383,0.906-0.592,1.47c0,0-0.778,0.303-0.822,0.778c-0.043,0.476,0.347,0.865,0.347,0.865l-0.216,0.692
	c0,0-0.649,0.13-0.779,0.692s0.433,1.038,0.433,1.038s-1.212,8.09-1.212,22.148c0,14.061,0,31.147,0,31.147h-0.691v-4.456
	c0,0-2.25-0.648-3.85-0.648c-1.602,0-3.548,0-4.414,0.779c-0.865,0.778,0.131,14.448,0.131,14.448l-9.047,3.22
	c-0.113-3.878-0.507-6.738-0.975-6.738c-0.496,0-0.908,3.21-0.994,7.439l-7.776,2.769c-0.111-3.913-0.507-6.805-0.978-6.805
	c-0.499,0-0.914,3.243-0.994,7.507l-7.938,2.826c-0.095-4.12-0.501-7.219-0.989-7.219c-0.514,0-0.939,3.459-1,7.927l-1.754,0.624
	v-1.254l-5.922,2.203c-0.135-3.578-0.512-6.154-0.956-6.154c-0.474,0-0.872,2.927-0.979,6.874l-7.73,2.874v-1.211h-0.923v1.555
	l-18.962,7.054l-0.52-0.347l-0.173-3.201c0,0-0.649-3.677-2.683-3.677s-2.768,4.196-2.768,4.196s-1.125,0.692-1.125,1.428
	s0.346,0.822,0.346,0.822v5.926c0,0-0.26,0.217-0.303,0.779s0.346,1.168,0.346,1.168v10.555c0,0,0.303,1.904,1.688,1.99
	c1.385,0.087,3.591,0,3.591,0s1.168-0.216,1.168-2.639c0-2.422,0-3.504,0-3.504h29.2l0.52,0.995h7.743l0.584-0.584h2.487
	l0.508,0.508h7.452l0.633-0.632h18.444c0,0,0.427,13.919,2.889,20.299c0.018,0.045,0.035,0.091,0.054,0.136
	c0,0,1.091,0.532,2.927,0.702v1.461h2.308v-1.463c0.735-0.07,1.532-0.207,2.379-0.441h1.341v10.21l-24.225,10.296
	c0,0-1.342,0.648-1.342,2.336c0,1.395-0.176,5.032,1.082,6.84v3.023h0.461v-2.506c0.162,0.139,0.338,0.256,0.533,0.343
	c2.337,1.038,10.297,1.644,10.297,1.644v-0.735l7.527,1.168l5.277,0.778l1.038-1.427v7.657c0,0,0.13,2.861,2.336,2.974v0.011h1.601
	v-0.011c2.206-0.112,2.336-2.974,2.336-2.974v-7.657l1.039,1.427l5.277-0.778l7.527-1.168v0.735c0,0,7.959-0.605,10.295-1.644
	c0.197-0.087,0.373-0.204,0.533-0.343v2.506h0.463v-3.023c1.257-1.808,1.08-5.445,1.08-6.84c0-1.688-1.34-2.336-1.34-2.336
	l-24.227-10.296v-10.21h1.342c0.848,0.234,1.645,0.371,2.379,0.441v1.463h2.307v-1.461c1.836-0.17,2.928-0.702,2.928-0.702
	c0.018-0.045,0.035-0.091,0.053-0.136c2.463-6.38,2.889-20.299,2.889-20.299h18.445l0.633,0.632h7.451l0.508-0.508h2.488
	l0.584,0.584h7.744l0.518-0.995h29.201c0,0,0,1.082,0,3.504c0,2.423,1.168,2.639,1.168,2.639s2.207,0.087,3.591,0
	c1.384-0.086,1.688-1.99,1.688-1.99v-10.555c0,0,0.39-0.605,0.346-1.168S394.57,154.266,394.57,154.266z"/>
</svg>
