<?xml version="1.0" encoding="utf-8"?>
<!-- Generator: Adobe Illustrator 16.0.0, SVG Export Plug-In . SVG Version: 6.00 Build 0)  -->
<!DOCTYPE svg PUBLIC "-//W3C//DTD SVG 1.1//EN" "http://www.w3.org/Graphics/SVG/1.1/DTD/svg11.dtd">
<svg version="1.1" id="Layer_1" xmlns="http://www.w3.org/2000/svg" xmlns:xlink="http://www.w3.org/1999/xlink" x="0px" y="0px"
	 width="193px" height="288.5px" viewBox="220.654 -9.505 193 288.5" enable-background="new 220.654 -9.505 193 288.5"
	 xml:space="preserve">
<path fill="#118CCC" stroke="#118CCC" stroke-width="1.5" d="M320.16,255.415c2.308-1.499,2.769-7.383,2.769-7.383v-13.439
	c1.27,8.883,3.345,12.286,3.345,12.286l9.402-0.289c1.27-3.519,2.192-14.188,2.192-14.188l4.038,14.016l19.149,2.866v2.498h0.462
	v-2.43l3.172,0.476v2.127h0.462v-2.059l3.287,0.492v2.489h0.461v-3.13l7.269-11.693l-33.859-33.051v-9.69
	c0,0,46.581,12.351,59.584,15.829v2.514h0.462v-2.391c1.513,0.403,2.522,0.668,2.884,0.751v2.331h0.462v-2.261
	c1.351,0.123,1.846-0.565,1.846-0.565s0-35.588,0-35.761s-0.059-3.288-0.924-3.288c-0.866,0-0.979,3.115-0.979,3.115v13.093
	l-63.563-58.257v-2.596c0,0-5.71-14.189-6.691-17.649c-0.981-3.461-2.019-8.075-2.019-8.075l-2.999-18.573
	c0,0-4.269-24.688-4.729-28.956c-0.462-4.268-1.039-16.438-1.039-16.438c-0.809-19.092-7.209-32.992-7.209-32.992
	s-0.024,0.003-0.059,0.008v-3.44h-0.26v-3.266h0.434v-0.801h-0.434v-2.682h-0.519v2.682h-0.433v0.801h0.433v3.266h-0.26v3.44
	c-0.033-0.005-0.058-0.008-0.058-0.008s-6.402,13.9-7.21,32.992c0,0-0.577,12.171-1.038,16.438
	c-0.461,4.269-4.729,28.956-4.729,28.956l-2.999,18.573c0,0-1.039,4.614-2.02,8.075c-0.98,3.46-6.69,17.649-6.69,17.649v2.596
	l-63.563,58.256v-13.092c0,0-0.115-3.115-0.98-3.115s-0.923,3.115-0.923,3.288s0,35.761,0,35.761s0.495,0.688,1.846,0.565v2.261
	h0.462v-2.331c0.361-0.083,1.371-0.348,2.883-0.751v2.391h0.462v-2.514c13.003-3.479,59.584-15.829,59.584-15.829v9.69
	l-33.858,33.051l7.268,11.693v3.13h0.461v-2.489l3.288-0.492v2.059h0.462v-2.127l3.172-0.476v2.43h0.461v-2.498l19.15-2.866
	l4.037-14.016c0,0,0.923,10.67,2.192,14.188l9.401,0.289c0,0,2.078-3.403,3.346-12.286v13.439c0,0,0.462,5.884,2.769,7.383
	c0,0-0.75,12.113,3.173,17.65h0.346C320.911,267.528,320.16,255.415,320.16,255.415z"/>
</svg>
