<?xml version="1.0" encoding="utf-8"?>
<!-- Generator: Adobe Illustrator 16.0.0, SVG Export Plug-In . SVG Version: 6.00 Build 0)  -->
<!DOCTYPE svg PUBLIC "-//W3C//DTD SVG 1.1//EN" "http://www.w3.org/Graphics/SVG/1.1/DTD/svg11.dtd">
<svg version="1.1" id="Layer_1" xmlns="http://www.w3.org/2000/svg" xmlns:xlink="http://www.w3.org/1999/xlink" x="0px" y="0px"
	 width="199px" height="288.5px" viewBox="216.667 -9.505 199 288.5" enable-background="new 216.667 -9.505 199 288.5"
	 xml:space="preserve">
<path fill="#118CCC" stroke="#118CCC" stroke-width="1.5" d="M312.262,251.723c0,0,0,10.557,3.545,15.012h1.039
	c3.549-4.455,3.549-15.012,3.549-15.012c3.547-0.346,3.416-7.396,3.416-7.396l2.465,8.436h10.342
	c1.514-2.553,2.551-11.896,2.551-11.896l4.283,11.074l20.057,2.088v2.713h0.434v-2.668l3.057,0.318V257h0.434v-2.564l2.711,0.283
	v2.541h0.432v-2.496l0.305,0.031c5.926-5.883,6.271-11.896,6.359-11.768c0.086,0.131-33.008-32.271-33.008-32.271v-5.797
	l61.125,12.129v2.104h0.434v-2.016l0.779,0.156c0,0,0.15-2.008,0.07-2.652c0.264,0.713,1.219,3.127,2.178,3.127
	c1.125,0,1.645-3.633,1.645-3.633V184.93c0,0,0.822-0.951,0.822-1.688c0-0.734-1.039-1.902-1.039-1.902v-10.902
	c0,0-0.389-4.672-1.99-4.672c-1.6,0-1.73,3.287-1.73,3.287v2.941l-0.346,0.865v19.209c0,0-57.361-51.566-62.207-56.066
	c-4.846-4.499-4.412-11.074-4.412-11.074l17.303,9.776v-6.143c0,0-7.699-12.026-17.131-23.014
	c-9.43-10.988-10.035-18.861-10.035-19.208c0-0.346-1.299-7.44-2.25-12.199c-0.531-2.659-1.496-7.669-2.289-14.062
	c0.934-0.787,2.059-1.714,2.059-1.714v-9.431h-0.635v7.605c-0.381,0.105-1.088,0.3-1.773,0.496
	c-0.461-4.322-0.816-9.143-0.908-14.216c-0.26-14.275-6.924-31.579-6.924-31.579h-0.084V8.3h-0.434V1.292h-0.26V8.3h-0.432v2.942
	h-0.088c0,0-6.662,17.304-6.92,31.579c-0.26,14.276-2.596,26.562-3.549,31.32c-0.951,4.759-2.248,11.854-2.248,12.199
	c0,0.347-0.605,8.22-10.037,19.208c-9.43,10.987-17.131,23.014-17.131,23.014v6.143l17.305-9.776c0,0,0.432,6.575-4.414,11.074
	c-4.846,4.5-62.207,56.066-62.207,56.066V172.86l-0.346-0.865v-2.941c0,0-0.131-3.287-1.73-3.287c-1.602,0-1.99,4.672-1.99,4.672
	v10.902c0,0-1.039,1.168-1.039,1.902c0,0.736,0.822,1.688,0.822,1.688v29.244c0,0,0.52,3.633,1.645,3.633
	c0.959,0,1.914-2.414,2.178-3.127c-0.08,0.645,0.072,2.652,0.072,2.652l0.777-0.156v2.016h0.434v-2.104l61.127-12.129v5.797
	c0,0-33.096,32.402-33.008,32.271c0.086-0.129,0.432,5.885,6.357,11.768l0.305-0.031v2.496h0.432v-2.541l2.711-0.283V257h0.434
	v-2.609l3.057-0.318v2.668h0.434v-2.713l20.057-2.088l4.283-11.074c0,0,1.039,9.344,2.551,11.896h10.34l2.465-8.436
	C308.842,244.327,308.713,251.377,312.262,251.723z"/>
</svg>
