<?xml version="1.0" encoding="utf-8"?>
<!-- Generator: Adobe Illustrator 16.0.0, SVG Export Plug-In . SVG Version: 6.00 Build 0)  -->
<!DOCTYPE svg PUBLIC "-//W3C//DTD SVG 1.1//EN" "http://www.w3.org/Graphics/SVG/1.1/DTD/svg11.dtd">
<svg version="1.1" id="Layer_1" xmlns="http://www.w3.org/2000/svg" xmlns:xlink="http://www.w3.org/1999/xlink" x="0px" y="0px"
	 width="199px" height="334.483px" viewBox="202.155 -34.906 199 334.483" enable-background="new 202.155 -34.906 199 334.483"
	 xml:space="preserve">
<path fill="#118CCC" stroke="#118CCC" stroke-width="1.5" d="M305.681,281.827l2.825-1.961l-2.018-4.846
	c0.98-3.979,2.134-35.473,2.134-35.473c2.308,8.595,3.807,10.325,3.807,10.325l7.614-0.058c2.248-3.173,3.807-11.825,3.807-11.825
	s4.269,12.113,4.096,11.998c-0.121-0.08,12.941,1.406,21.052,2.335v2.452h0.635v-2.379c0.839,0.096,1.616,0.185,2.308,0.264v2.173
	h0.635v-2.1c1.057,0.122,1.858,0.214,2.307,0.266v1.892h0.635v-2.111c6.506-7.486,6.229-10.981,6.229-10.981l-32.935-32.936v-12.17
	l59.178,16.573v2.576h0.637v-2.395l2.479,0.712v2.201h0.635v-2.019l0.808,0.23l0.75-0.403l-0.173-39.05c0,0,0.115-2.941-0.75-2.479
	c-0.865,0.461-1.327,2.653-1.327,2.653v14.073l-59.583-54.276l-6.402-12.978l16.496,7.498l0.289-5.884l-21.457-29.128l-6.518-32.358
	l-1.097-22.38l0.52-0.173v-0.635l-0.692-0.808l-0.115-1.096c0-26.475-9.863-38.185-9.863-38.185h-0.131v-1.967
	c0.156,0.148,0.345,0.236,0.549,0.236c0.182,0,0.352-0.072,0.496-0.193c0.03,0.24,0.215,0.424,0.441,0.424
	c0.246,0,0.447-0.219,0.447-0.489c0-0.271-0.201-0.49-0.447-0.49c-0.026,0-0.053,0.003-0.078,0.008
	c0.059-0.165,0.092-0.347,0.092-0.542c0-0.708-0.426-1.283-0.951-1.283c-0.204,0-0.393,0.089-0.549,0.237v-0.267h-0.402v-8.731
	l0.663,0.138l0.461-0.605l-1.269-0.705v-5.784h-0.26v5.784l-1.269,0.705l0.461,0.605l0.663-0.138v8.731h-0.403v0.267
	c-0.155-0.148-0.344-0.237-0.548-0.237c-0.525,0-0.951,0.575-0.951,1.283c0,0.195,0.034,0.377,0.092,0.542
	c-0.025-0.005-0.052-0.008-0.078-0.008c-0.248,0-0.447,0.219-0.447,0.49c0,0.271,0.199,0.489,0.447,0.489
	c0.227,0,0.411-0.184,0.441-0.424c0.145,0.121,0.313,0.193,0.496,0.193c0.204,0,0.393-0.088,0.548-0.236v1.967h-0.13
	c0,0-9.863,11.71-9.863,38.185l-0.115,1.096l-0.692,0.808v0.635l0.519,0.173l-1.096,22.38l-6.518,32.358l-21.457,29.128l0.289,5.884
	l16.496-7.498l-5.018,12.978l-59.584,54.276l-1.384-14.073c0,0-0.462-2.192-1.327-2.653c-0.865-0.462-0.75,2.479-0.75,2.479
	l-0.173,39.05l0.75,0.403l0.808-0.23v2.019h0.635v-2.201l2.479-0.712v2.395h0.636v-2.576l59.179-16.573v12.17l-32.935,32.936
	c0,0-0.276,3.495,6.229,10.981v2.111h0.635v-1.892c0.448-0.052,1.25-0.144,2.308-0.266v2.1h0.634v-2.173
	c0.692-0.079,1.47-0.168,2.309-0.264v2.379h0.634v-2.452c8.108-0.929,21.172-2.415,21.053-2.335
	c-0.173,0.115,4.095-11.998,4.095-11.998s1.557,8.652,3.807,11.825l7.614,0.058c0,0,1.5-1.73,3.806-10.325
	c0,0,1.154,31.493,2.135,35.473l-2.018,4.846l2.826,1.961c0,0,1.037,5.134,3.172,7.152l0.692,0.099l0.692-0.099
	C304.643,286.96,305.681,281.827,305.681,281.827z"/>
</svg>
