<?xml version="1.0" encoding="utf-8"?>
<!-- Generator: Adobe Illustrator 16.0.0, SVG Export Plug-In . SVG Version: 6.00 Build 0)  -->
<!DOCTYPE svg PUBLIC "-//W3C//DTD SVG 1.1//EN" "http://www.w3.org/Graphics/SVG/1.1/DTD/svg11.dtd">
<svg version="1.1" id="Layer_1" xmlns="http://www.w3.org/2000/svg" xmlns:xlink="http://www.w3.org/1999/xlink" x="0px" y="0px"
	 width="118.5px" height="110px" viewBox="1.167 77.995 118.5 110" enable-background="new 1.167 77.995 118.5 110"
	 xml:space="preserve">
<g>
	<g>
		<path fill="#07377A" d="M109.868,127.117c0,0,0.797-6.945,0.797-10.459c0-3.512-2.016-3.672-2.016-3.672l-32.174-2.115
			c0,0,0.16-1.318-0.857-1.318s-1.219,1.197-1.219,1.197l-7.105-0.418c0,0,0-4.691,0-9.461s-1.416-5.229-1.416-5.229h-2.815v-0.381
			h0.72v-1.057h0.119c7.385,0.318,12.055-0.52,12.055-0.52c-7.703-1.078-12.174-0.32-12.174-0.32l-0.041-0.318
			c0-2.834-2.235-3.951-2.235-3.951h-1.357c0,0-2.233,1.117-2.233,3.951l-0.041,0.318c0,0-4.471-0.758-12.174,0.32
			c0,0,4.669,0.838,12.055,0.52h0.119v1.057h0.719v0.381h-2.814c0,0-1.418,0.459-1.418,5.229s0,9.461,0,9.461l-7.105,0.418
			c0,0-0.199-1.197-1.217-1.197s-0.857,1.318-0.857,1.318l-9.422,0.62v-4.313H35.04v4.36l-22.033,1.449c0,0-2.016,0.16-2.016,3.672
			c0,3.514,0.797,10.459,0.797,10.459l43.332,8.104c0,0,3.232,23.692,3.751,25.827c0,0-14.21,1.498-14.169,1.557
			c0.039,0.061-2.436-0.219-2.436,2.635s0.539,7.227,0.539,7.227l6.425,0.977l0.08,0.32l2.655,0.398l0.1-0.338l5.949,0.857
			l1.456-3.674l0.898,5.471l0.219,2.455h0.479l0.219-2.455l0.9-5.471l1.458,3.674l5.947-0.857l0.1,0.338l2.654-0.398l0.08-0.32
			l6.426-0.977c0,0,0.539-4.373,0.539-7.227s-2.475-2.574-2.436-2.635c0.041-0.059-14.171-1.557-14.171-1.557
			c0.521-2.135,3.753-25.827,3.753-25.827L109.868,127.117z"/>
	</g>
	<g>
		<path fill="none" stroke="#FFFFFF" stroke-width="1.5" d="M109.868,127.117c0,0,0.797-6.945,0.797-10.459
			c0-3.512-2.016-3.672-2.016-3.672l-32.174-2.115c0,0,0.16-1.318-0.857-1.318s-1.219,1.197-1.219,1.197l-7.105-0.418
			c0,0,0-4.691,0-9.461s-1.416-5.229-1.416-5.229h-2.815v-0.381h0.72v-1.057h0.119c7.385,0.318,12.055-0.52,12.055-0.52
			c-7.703-1.078-12.174-0.32-12.174-0.32l-0.041-0.318c0-2.834-2.235-3.951-2.235-3.951h-1.357c0,0-2.233,1.117-2.233,3.951
			l-0.041,0.318c0,0-4.471-0.758-12.174,0.32c0,0,4.669,0.838,12.055,0.52h0.119v1.057h0.719v0.381h-2.814
			c0,0-1.418,0.459-1.418,5.229s0,9.461,0,9.461l-7.105,0.418c0,0-0.199-1.197-1.217-1.197s-0.857,1.318-0.857,1.318l-9.422,0.62
			v-4.313H35.04v4.36l-22.033,1.449c0,0-2.016,0.16-2.016,3.672c0,3.514,0.797,10.459,0.797,10.459l43.332,8.104
			c0,0,3.232,23.692,3.751,25.827c0,0-14.21,1.498-14.169,1.557c0.039,0.061-2.436-0.219-2.436,2.635s0.539,7.227,0.539,7.227
			l6.425,0.977l0.08,0.32l2.655,0.398l0.1-0.338l5.949,0.857l1.456-3.674l0.898,5.471l0.219,2.455h0.479l0.219-2.455l0.9-5.471
			l1.458,3.674l5.947-0.857l0.1,0.338l2.654-0.398l0.08-0.32l6.426-0.977c0,0,0.539-4.373,0.539-7.227s-2.475-2.574-2.436-2.635
			c0.041-0.059-14.171-1.557-14.171-1.557c0.521-2.135,3.753-25.827,3.753-25.827L109.868,127.117z"/>
	</g>
</g>
</svg>
