<?xml version="1.0" encoding="utf-8"?>
<!-- Generator: Adobe Illustrator 16.0.0, SVG Export Plug-In . SVG Version: 6.00 Build 0)  -->
<!DOCTYPE svg PUBLIC "-//W3C//DTD SVG 1.1//EN" "http://www.w3.org/Graphics/SVG/1.1/DTD/svg11.dtd">
<svg version="1.1" id="Layer_1" xmlns="http://www.w3.org/2000/svg" xmlns:xlink="http://www.w3.org/1999/xlink" x="0px" y="0px"
	 width="118.5px" height="110px" viewBox="221.167 77.995 118.5 110" enable-background="new 221.167 77.995 118.5 110"
	 xml:space="preserve">
<path fill="#118CCC" stroke="#118CCC" stroke-width="1.5" d="M280.967,90.092c0,0-2.346,1.98-2.346,3.465c0,0-5.23,0.41-5.598,0.646
	c-0.365,0.236,0.195,0.453,0.195,0.453l5.402,0.494L278.6,95.56l0.969,0.086l0.172,0.71h0.473v0.409h-4.283
	c0,0-1.42,0.28-1.42,5.467c0,5.188,0.861,9.967,0.861,9.967l-10.074,0.517c0,0,0.322-1.916-0.99-1.916s-1.055,2.046-1.055,2.046
	l-27.271,1.743v-5.145h-0.646v5.166l-4.09,0.301c0,0-2.518,0.775-2.518,4.09l-0.518-0.388l-0.301,0.194l-0.172,0.409l0.15,17.134
	l0.365,0.086l0.516-13.775l0.131,4.24l32.891,5.726l0.02,0.451l2.219,0.409l0.494-0.451l7.189,1.27c0,0,3.939,1.012,3.939,3.875
	c0,0,2.002,17.585,3.271,22.838l-15.109,1.656c0,0-1.186,0.346-1.271,2.023c-0.086,1.68,0.107,6.867,0.107,6.867l0.258,0.408
	l15.262,1.896l2.154-3.832l0.537,7.878l0.322,0.021l0.582-7.964l2.26,4.326l2.992-0.388l0.236-0.581l12.184-1.7l0.043-7.835
	c0,0-0.064-1.034-1.635-1.228c-1.572-0.193-14.682-1.549-14.682-1.549s1.938-15.498,2.842-22.667c0,0,0.538-3.551,3.896-4.154
	c3.357-0.603,7.275-1.205,7.275-1.205l0.365,0.345l2.282-0.452l0.236-0.474l32.87-5.617l0.149-4.758l0.345,13.949h0.301
	l0.193-17.285c0,0-0.301-0.582-0.494-0.345s-0.517,0.495-0.517,0.495s0.128-3.724-2.153-3.939c-2.281-0.215-32.33-2.045-32.33-2.045
	s0.216-2.023-0.99-2.131c-1.205-0.107-1.012,1.916-1.012,1.916l-10.052-0.56c0,0,0.839-6.802,0.99-10.053
	c0.15-3.251-1.421-5.166-1.7-5.23c-0.281-0.064-4.111,0.022-4.111,0.022v-0.453h0.301v-0.731h1.119v-0.581
	c0,0,7.922,0.064,13.625-0.539c0,0,0.453-0.258-0.086-0.387c-0.537-0.129-11.386-0.667-13.475-0.474
	C283.034,93.666,282.172,90.717,280.967,90.092z"/>
</svg>
