<?xml version="1.0" encoding="utf-8"?>
<!-- Generator: Adobe Illustrator 16.0.0, SVG Export Plug-In . SVG Version: 6.00 Build 0)  -->
<!DOCTYPE svg PUBLIC "-//W3C//DTD SVG 1.1//EN" "http://www.w3.org/Graphics/SVG/1.1/DTD/svg11.dtd">
<svg version="1.1" id="Layer_1" xmlns="http://www.w3.org/2000/svg" xmlns:xlink="http://www.w3.org/1999/xlink" x="0px" y="0px"
	 width="199px" height="293px" viewBox="214.667 -14.505 199 293" enable-background="new 214.667 -14.505 199 293"
	 xml:space="preserve">
<path fill="#118CCC" stroke="#118CCC" stroke-width="1.5" d="M312.971,269.97h-0.49c-1.158-1.515-1.871-4.989-1.871-4.989
	c-3.519-0.489-2.584-3.296-2.584-3.296l-0.623-15.324l-1.158-8.196l-0.579,8.331l-13.72-0.179l-0.401-11.493l-4.677,11.404
	l-24.9,2.316l-0.09,0.489l-1.47-0.134c-6.593-8.195-6.325-11.047-6.192-10.957c0.135,0.089,32.162-31.895,32.162-31.895v-9.488
	l-62.452,15.457l-1.47,0.134v-39.823c0,0-0.045-3.252,0.802-2.539s0.936,1.916,0.936,1.916v16.08l63.12-56.305
	c0,0,0-1.336,0.045-3.029c0.043-1.693,0.803-2.851,0.803-2.851c3.072-6.281,8.418-25.079,8.418-25.079l1.381-7.439
	c0,0,5.568-28.775,7.527-54.611c1.961-25.836,7.306-34.746,7.306-34.746l0.268-9.666h0.534l0.268,9.666c0,0,5.345,8.91,7.305,34.746
	s7.528,54.611,7.528,54.611l1.381,7.439c0,0,5.346,18.798,8.419,25.079c0,0,0.758,1.157,0.803,2.851
	c0.044,1.693,0.044,3.029,0.044,3.029l63.12,56.305v-16.08c0,0,0.089-1.203,0.936-1.916c0.846-0.713,0.802,2.539,0.802,2.539v39.823
	l-1.47-0.134l-62.452-15.457v9.488c0,0,32.026,31.983,32.161,31.895c0.134-0.09,0.401,2.762-6.191,10.957l-1.471,0.134l-0.09-0.489
	l-24.9-2.316l-4.676-11.404l-0.401,11.493l-13.72,0.179l-0.578-8.331l-1.16,8.196l-0.623,15.324c0,0,0.936,2.807-2.583,3.296
	c0,0-0.713,3.475-1.871,4.989h-0.49H312.971z"/>
</svg>
