<?xml version="1.0" encoding="utf-8"?>
<!-- Generator: Adobe Illustrator 16.0.0, SVG Export Plug-In . SVG Version: 6.00 Build 0)  -->
<!DOCTYPE svg PUBLIC "-//W3C//DTD SVG 1.1//EN" "http://www.w3.org/Graphics/SVG/1.1/DTD/svg11.dtd">
<svg version="1.1" id="Layer_1" xmlns="http://www.w3.org/2000/svg" xmlns:xlink="http://www.w3.org/1999/xlink" x="0px" y="0px"
	 width="199px" height="293px" viewBox="-38.833 -14.505 199 293" enable-background="new -38.833 -14.505 199 293"
	 xml:space="preserve">
<path fill="#07377A" stroke="#FFFFFF" stroke-width="1.5" d="M59.569-3.998h-0.432v0.799h0.432v3.258H59.31v3.431
	c-0.034-0.004-0.058-0.008-0.058-0.008s-6.386,13.864-7.191,32.906c0,0-0.576,12.138-1.035,16.396
	c-0.46,4.258-4.717,28.879-4.717,28.879l-2.992,18.524c0,0-1.035,4.602-2.014,8.054s-6.673,17.604-6.673,17.604v2.588
	l-63.397,58.104v-13.059c0,0-0.114-3.106-0.977-3.106c-0.863,0-0.922,3.106-0.922,3.278c0,0.174,0,35.668,0,35.668
	s0.495,0.687,1.842,0.563v2.255h0.459v-2.325c0.361-0.083,1.369-0.347,2.878-0.749v2.385h0.46v-2.508
	c12.969-3.469,59.428-15.787,59.428-15.787v9.665L0.63,235.781l7.249,11.664v3.12h0.46v-2.481l3.28-0.491v2.053h0.459v-2.121
	l3.164-0.474v2.422h0.461v-2.491l19.099-2.858l4.028-13.979c0,0,0.92,10.643,2.186,14.151l9.377,0.289c0,0,2.071-3.395,3.337-12.254
	v13.404c0,0,0.458,5.867,2.762,7.363c0,0-0.109,5.422-0.026,7.901c-0.636,0.915-1.035,0.017-1.035,1.465
	c0,2.143,0.872,2.501,2.096,3.216c0.479,1.887,1.161,3.654,2.129,5.021H60c0.967-1.367,1.648-3.134,2.128-5.021
	c1.224-0.714,2.098-1.073,2.098-3.217c0-1.448-0.401-0.552-1.036-1.466c0.083-2.479-0.026-7.9-0.026-7.9
	c2.302-1.496,2.762-7.363,2.762-7.363V232.33c1.266,8.859,3.337,12.254,3.337,12.254l9.377-0.289
	c1.266-3.509,2.187-14.151,2.187-14.151l4.026,13.979l19.1,2.858v2.491h0.461v-2.422l3.164,0.474v2.121h0.461v-2.053l3.277,0.491
	v2.481h0.46v-3.12l7.249-11.664l-33.77-32.964v-9.665c0,0,46.459,12.318,59.428,15.788v2.507h0.46v-2.385
	c1.509,0.402,2.517,0.666,2.877,0.749v2.325h0.459v-2.255c1.349,0.123,1.842-0.563,1.842-0.563s0-35.494,0-35.668
	c0-0.172-0.058-3.278-0.921-3.278s-0.977,3.106-0.977,3.106v13.059l-63.397-58.104v-2.588c0,0-5.694-14.152-6.674-17.604
	c-0.978-3.452-2.013-8.054-2.013-8.054l-2.992-18.524c0,0-4.258-24.621-4.717-28.879c-0.46-4.258-1.035-16.396-1.035-16.396
	c-0.807-19.042-7.193-32.906-7.193-32.906s-0.021,0.004-0.056,0.008V0.059h-0.259v-3.258h0.432v-0.799h-0.432v-2.675h-0.518V-3.998z
	"/>
</svg>
