<?xml version="1.0" encoding="utf-8"?>
<!-- Generator: Adobe Illustrator 16.0.0, SVG Export Plug-In . SVG Version: 6.00 Build 0)  -->
<!DOCTYPE svg PUBLIC "-//W3C//DTD SVG 1.1//EN" "http://www.w3.org/Graphics/SVG/1.1/DTD/svg11.dtd">
<svg version="1.1" id="Layer_1" xmlns="http://www.w3.org/2000/svg" xmlns:xlink="http://www.w3.org/1999/xlink" x="0px" y="0px"
	 width="119.334px" height="105.333px" viewBox="-0.5 80.828 119.334 105.333" enable-background="new -0.5 80.828 119.334 105.333"
	 xml:space="preserve">
<path fill="#07377A" stroke="#FFFFFF" stroke-width="1.5" d="M58.966,89.303c0,0-2.346,1.979-2.346,3.466
	c0,0-13.883,0.409-14.248,0.646c-0.367,0.236,0.193,0.452,0.193,0.452l14.055,0.495l-0.021,0.409l0.969,0.086l0.172,0.71h0.475
	v0.409h-4.285c0,0-1.42,0.28-1.42,5.467c0,5.188,0.17,9.967,0.17,9.967l-9.383,0.516c0,0,0.322-1.915-0.99-1.915
	s-1.055,2.046-1.055,2.046l-27.272,1.742v-5.145h-0.646v5.166l-4.09,0.302c0,0-2.518,0.774-2.518,4.09l-0.516-0.388l-0.303,0.193
	l-0.172,0.41l0.15,17.134l0.365,0.086l0.518-13.776l0.129,4.24l32.892,5.727l0.021,0.451l2.217,0.409l0.494-0.452l7.189,1.27
	c0,0,3.939,1.013,3.939,3.876c0,0,0.963,17.586,2.234,22.838l-14.072,3.387c0,0-1.184,0.346-1.271,2.023
	c-0.086,1.68,0.107,5.137,0.107,5.137l0.26,0.408l15.262,1.896l2.152-3.832l0.537,5.455l0.324,0.021l0.58-5.541l2.259,4.326
	l2.994-0.389l0.236-0.58l12.182-1.701l0.045-6.104c0,0-0.066-1.033-1.637-1.229c-1.571-0.193-13.643-3.279-13.643-3.279
	s0.899-15.498,1.804-22.666c0,0,0.539-3.552,3.896-4.155c3.358-0.603,7.274-1.205,7.274-1.205l0.367,0.345l2.281-0.452l0.236-0.475
	l32.869-5.617l0.15-4.758l0.344,13.95h0.303l0.193-17.285c0,0-0.301-0.582-0.496-0.345c-0.193,0.236-0.516,0.495-0.516,0.495
	s0.129-3.724-2.152-3.939s-32.332-2.044-32.332-2.044s0.217-2.024-0.99-2.132c-1.204-0.107-1.01,1.916-1.01,1.916l-9.36-0.56
	c0,0,0.147-6.803,0.298-10.053c0.151-3.25-1.421-5.166-1.7-5.23c-0.28-0.064-4.111,0.021-4.111,0.021v-0.452h0.301v-0.731h1.119
	v-0.581c0,0,7.922,0.063,13.625-0.539c0,0,0.453-0.258-0.085-0.387c-0.538-0.13-11.386-0.667-13.476-0.474
	C61.033,92.876,60.171,89.928,58.966,89.303z"/>
</svg>
