<?xml version="1.0" encoding="utf-8"?>
<!-- Generator: Adobe Illustrator 16.0.0, SVG Export Plug-In . SVG Version: 6.00 Build 0)  -->
<!DOCTYPE svg PUBLIC "-//W3C//DTD SVG 1.1//EN" "http://www.w3.org/Graphics/SVG/1.1/DTD/svg11.dtd">
<svg version="1.1" id="Layer_1" xmlns="http://www.w3.org/2000/svg" xmlns:xlink="http://www.w3.org/1999/xlink" x="0px" y="0px"
	 width="299.333px" height="242.667px" viewBox="-90.499 12.161 299.333 242.667"
	 enable-background="new -90.499 12.161 299.333 242.667" xml:space="preserve">
<path fill="#07377A" stroke="#FFFFFF" stroke-width="1.5" d="M197.239,128.125c0,0-2.553-8.838-3.361-11.824
	c-0.809-2.988-2.365-2.553-2.365-2.553l-44.436,0.062l-45.492-0.188l-0.414-0.049v-26.15l-0.746-2.49l-0.021-0.766
	c0,0,14.23-0.561,15.953-0.955c0,0-2.656-1.078-16.555-1.037c0,0-0.955-4.045-2.863-5.291H95.92
	c-1.908,1.246-2.861,5.291-2.861,5.291c-13.9-0.041-16.555,1.037-16.555,1.037c1.723,0.395,15.953,0.955,15.953,0.955l-0.021,0.766
	l-0.746,2.49v25.004l-18.795-2.041c0,0-0.062-40.451-0.498-47.172s-1.68-14.625-1.68-14.625
	c-5.078-21.721-9.911-25.568-11.583-26.244v-0.143c0,0-0.107-0.01-0.308,0.041c-0.2-0.051-0.308-0.041-0.308-0.041l-0.001,0.143
	c-1.669,0.676-6.503,4.523-11.581,26.244c0,0-1.244,7.904-1.681,14.625c-0.436,6.721-0.497,47.172-0.497,47.172l-18.795,2.041
	V87.423l-0.747-2.49l-0.021-0.766c0,0,14.23-0.561,15.952-0.955c0,0-2.655-1.078-16.554-1.037c0,0-0.955-4.045-2.863-5.291h-1.018
	c-1.908,1.246-2.861,5.291-2.861,5.291C3.955,82.134,1.298,83.212,1.298,83.212c1.723,0.395,15.953,0.955,15.953,0.955l-0.021,0.766
	l-0.746,2.49v26.15l-0.415,0.049l-45.493,0.188l-44.435-0.062c0,0-1.556-0.436-2.364,2.553c-0.81,2.986-3.361,11.824-3.361,11.824
	s-0.809,3.049-0.561,5.602l2.988-5.789c0,0,1.432-0.248,3.422,0.312c1.992,0.559,44.311,11.326,44.311,11.326l45.814,0.152
	c0.243,88.328,4.596,89.215,4.596,89.215l-3.922,0.934c-2.738,0.621-0.186,11.949-0.186,11.949h83.897
	c0,0,2.551-11.328-0.188-11.949l-3.92-0.934c0,0,4.352-0.887,4.594-89.215l45.814-0.152c0,0,42.32-10.768,44.312-11.326
	c1.99-0.561,3.422-0.312,3.422-0.312l2.986,5.789C198.045,131.173,197.239,128.125,197.239,128.125z M72.895,158.556
	c-0.062-0.186,0.188-18.732,0.188-18.732l18.07-0.061c0.119,8.461,0.398,22.805,1.023,38.211H72.161
	C72.264,175.48,72.954,158.73,72.895,158.556z M26.501,139.763l18.07,0.061c0,0,0.249,18.547,0.188,18.732
	c-0.059,0.174,0.631,16.924,0.733,19.418H25.478C26.103,162.568,26.38,148.224,26.501,139.763z M90.01,222.035
	c0,0-0.312-1.307-0.996-1.307c-0.686,0-0.996,6.285-0.996,6.285H29.636c0,0-0.312-6.285-0.996-6.285s-0.996,1.307-0.996,1.307
	l-4.045-11.949c0.525-6.359,0.96-13.16,1.318-19.998h21.271l0.001,0.021c0,0,0.374,6.16,2.738,6.16h8.534c0,0,1.15,0,2.73,0h8.532
	c2.365,0,2.738-6.16,2.738-6.16v-0.021h21.273c0.357,6.838,0.791,13.639,1.318,19.998L90.01,222.035z"/>
</svg>
