<?xml version="1.0" encoding="utf-8"?>
<!-- Generator: Adobe Illustrator 16.0.0, SVG Export Plug-In . SVG Version: 6.00 Build 0)  -->
<!DOCTYPE svg PUBLIC "-//W3C//DTD SVG 1.1//EN" "http://www.w3.org/Graphics/SVG/1.1/DTD/svg11.dtd">
<svg version="1.1" id="Layer_1" xmlns="http://www.w3.org/2000/svg" xmlns:xlink="http://www.w3.org/1999/xlink" x="0px" y="0px"
	 width="198.667px" height="289.333px" viewBox="-39.832 -12.507 198.667 289.333"
	 enable-background="new -39.832 -12.507 198.667 289.333" xml:space="preserve">
<path fill="#07377A" stroke="#FFFFFF" stroke-width="1.5" d="M40.19,264.721c0,0,3.404-3.23,3.289-16.207h0.807v-7.441h1.152
	l1.5,9.922h11.018l1.039-6.23h1.665l1.039,6.23h11.016l1.5-9.922h1.154v7.441h0.807c-0.115,12.977,3.289,16.207,3.289,16.207
	l0.403,0.115c3.229-3.633,3.288-12.979,3.288-12.979l0.23,6.865l10.512-0.895v1.326h0.346v-1.355l1.99-0.17v1.375h0.346V257.6
	l1.99-0.17v1.422h0.346v-1.451l0.736-0.062l3.115-9.748l-9.922-34.838l0.115-3.865l1.442,1.904c0,0,47.644-37.666,49.894-39.568
	c2.249-1.904,3.575-7.846,3.575-7.846s3.46-11.996,2.884-14.766c-0.576-2.768-3.46-1.5-3.46-1.5s-44.875,16.756-49.835,18.486
	c-4.961,1.73-6.287-1.701-6.402-1.701l-8.652-15.227l0.23-1.5l14.65-5.076l2.654-9.114l-17.982-21.039
	c0-0.734-0.043-7.889-1.082-10.512c-1.821-4.605-10.945-21.457-10.945-21.457c-0.346-14.146-2.379-33.916-2.379-33.916
	c-4.153-30.195-7.008-29.178-7.008-29.178H60.39v-1.705l0.908,0.096l0.172-0.418l-1.08-0.678V13.92l0.908,0.096l0.172-0.418
	l-1.08-0.678l-0.174-0.404V5.201l0.721,0.076l0.174-0.418l-0.895-0.561V4.297L60.029,4.18v-4.988h-0.404v4.99l-0.187,0.115v0.002
	l-0.895,0.561l0.172,0.418l0.723-0.076v7.314l-0.174,0.404l-1.082,0.678l0.174,0.418l0.908-0.096v0.254l-1.082,0.678l0.174,0.418
	l0.908-0.096v1.705H59.11c0,0-2.843-1.01-6.981,28.98c-0.373-0.01-0.873-0.033-0.873-0.033l-0.578,3.057l1.117,0.307
	c-0.58,6.135-1.811,20.07-2.072,30.783c0,0-9.124,16.852-10.944,21.457c-1.039,2.623-1.082,9.777-1.082,10.512L19.714,132.98
	l2.652,9.114l14.651,5.076l0.23,1.5l-8.651,15.227c-0.115,0-1.443,3.432-6.402,1.701c-4.962-1.73-49.837-18.486-49.837-18.486
	s-2.883-1.27-3.459,1.5c-0.578,2.768,2.883,14.766,2.883,14.766s1.326,5.941,3.576,7.846c2.25,1.902,49.894,39.568,49.894,39.568
	l1.441-1.904l0.115,3.865l-9.921,34.838l3.116,9.748l0.734,0.062v1.451h0.346v-1.422l1.99,0.17v1.404h0.346v-1.375l1.99,0.17v1.355
	h0.348v-1.326l10.511,0.895l0.23-6.865c0,0,0.057,9.346,3.287,12.979L40.19,264.721z"/>
</svg>
