<?xml version="1.0" encoding="utf-8"?>
<!-- Generator: Adobe Illustrator 16.0.0, SVG Export Plug-In . SVG Version: 6.00 Build 0)  -->
<!DOCTYPE svg PUBLIC "-//W3C//DTD SVG 1.1//EN" "http://www.w3.org/Graphics/SVG/1.1/DTD/svg11.dtd">
<svg version="1.1" id="Layer_1" xmlns="http://www.w3.org/2000/svg" xmlns:xlink="http://www.w3.org/1999/xlink" x="0px" y="0px"
	 width="198.667px" height="278.667px" viewBox="-39.832 -7.842 198.667 278.667"
	 enable-background="new -39.832 -7.842 198.667 278.667" xml:space="preserve">
<path fill="#07377A" stroke="#FFFFFF" stroke-width="1.5" d="M70.9,231.454l2.511,16.871l12.026-0.086l1.038-16.698l7.008,21.283
	l32.013-5.45l4.672-11.075l-29.59-32.791l11.161,11.594l34.089-6.143l9.258-6.576v-15.659l-51.826-55.719l-8.046-31.061
	L72.891,76.929c0-46.836-12.69-77.406-12.69-77.406h-0.748c0,0-12.69,30.57-12.69,77.406L24.44,99.944l-8.045,31.061l-51.826,55.719
	v15.659l9.258,6.576l34.088,6.143l11.162-11.594l-29.59,32.791l4.672,11.075l32.012,5.45l7.008-21.283l1.039,16.698l12.025,0.086
	l2.512-16.871c0,0,2.939,22.928,10.466,33.051h1.213C67.959,254.381,70.9,231.454,70.9,231.454z"/>
</svg>
