<?xml version="1.0" encoding="utf-8"?>
<!-- Generator: Adobe Illustrator 16.0.0, SVG Export Plug-In . SVG Version: 6.00 Build 0)  -->
<!DOCTYPE svg PUBLIC "-//W3C//DTD SVG 1.1//EN" "http://www.w3.org/Graphics/SVG/1.1/DTD/svg11.dtd">
<svg version="1.1" id="Layer_1" xmlns="http://www.w3.org/2000/svg" xmlns:xlink="http://www.w3.org/1999/xlink" x="0px" y="0px"
	 width="199px" height="293px" viewBox="-38.833 -14.505 199 293" enable-background="new -38.833 -14.505 199 293"
	 xml:space="preserve">
<path fill="#07377A" stroke="#FFFFFF" stroke-width="1.5" d="M51.563,25.292c-0.26,14.275-2.248,39.021-3.201,43.779
	c-0.951,4.759-1.902,11.854-1.902,12.199s-0.606,8.219-10.037,19.207c-9.43,10.988-17.13,23.015-17.13,23.015v6.144l17.304-9.777
	c0,0,0.432,6.575-4.414,11.074c-4.844,4.5-62.207,56.064-62.207,56.064V167.79l-0.346-0.865v-2.941c0,0-0.131-3.287-1.73-3.287
	c-1.602,0-1.99,4.672-1.99,4.672v10.902c0,0-1.037,1.168-1.037,1.902c0,0.736,0.82,1.688,0.82,1.688v29.244
	c0,0,0.52,3.633,1.645,3.633c0.959,0,1.914-2.414,2.178-3.129c-0.08,0.646,0.072,2.654,0.072,2.654l0.777-0.156v2.016h0.434v-2.104
	l61.125-12.129v5.797c0,0-33.092,32.402-33.006,32.271c0.086-0.129,0.432,5.883,6.359,11.768l0.303-0.033v2.498H6.01v-2.541
	l2.711-0.283v2.564h0.434v-2.609l3.057-0.318v2.668h0.434v-2.713l20.057-2.088l4.283-11.074c0,0,1.037,9.344,2.553,11.896h10.338
	l2.338-7.992v24.104h4.862c0.516,2.836,1.232,5.258,2.232,6.514h1.037c0.998-1.256,1.717-3.678,2.232-6.514h4.862V239.7l2.336,7.992
	h10.34c1.514-2.553,2.551-11.896,2.551-11.896l4.283,11.074l20.057,2.088v2.713h0.434v-2.668l3.059,0.318v2.609h0.432v-2.564
	l2.711,0.283v2.541h0.432v-2.498l0.305,0.033c5.926-5.885,6.271-11.896,6.359-11.768c0.086,0.131-33.008-32.271-33.008-32.271
	v-5.797l61.127,12.129v2.104h0.432v-2.016l0.779,0.156c0,0,0.15-2.008,0.072-2.654c0.262,0.715,1.217,3.129,2.176,3.129
	c1.125,0,1.645-3.633,1.645-3.633V179.86c0,0,0.822-0.951,0.822-1.688c0-0.734-1.039-1.902-1.039-1.902v-10.902
	c0,0-0.389-4.672-1.988-4.672c-1.602,0-1.732,3.287-1.732,3.287v2.941l-0.346,0.865v19.207c0,0-57.361-51.565-62.207-56.064
	c-4.846-4.499-4.414-11.074-4.414-11.074l17.305,9.777v-6.144c0,0-7.699-12.026-17.131-23.015
	c-9.43-10.988-10.035-18.861-10.035-19.207s-0.951-7.44-1.904-12.199c-0.531-2.659-1.15-20.128-1.941-26.521l-0.35-3.043
	c-0.463-4.322-0.818-9.141-0.91-14.215c-0.26-14.275-7.612-31.58-7.612-31.58h-1.299C59.177-6.289,51.823,11.016,51.563,25.292z"/>
</svg>
